SplineFontDB: 3.0
FontName: Wallpoet
FullName: Wallpoet
FamilyName: Wallpoet
Weight: Book
Copyright: Copyright (c) 2011 by Lars Berggren. All rights reserved.
Version: 1.000
ItalicAngle: 0
UnderlinePosition: -50
UnderlineWidth: 50
Ascent: 800
Descent: 200
sfntRevision: 0x00010000
LayerCount: 2
Layer: 0 1 "Back"  1
Layer: 1 1 "Fore"  0
XUID: [1021 288 713564382 3581991]
FSType: 4
OS2Version: 3
OS2_WeightWidthSlopeOnly: 0
OS2_UseTypoMetrics: 1
CreationTime: 1302246360
ModificationTime: 1303487403
PfmFamily: 81
TTFWeight: 400
TTFWidth: 5
LineGap: 0
VLineGap: 0
Panose: 0 0 0 0 0 0 0 0 0 0
OS2TypoAscent: 806
OS2TypoAOffset: 0
OS2TypoDescent: -196
OS2TypoDOffset: 0
OS2TypoLinegap: 0
OS2WinAscent: 806
OS2WinAOffset: 0
OS2WinDescent: 196
OS2WinDOffset: 0
HheadAscent: 806
HheadAOffset: 0
HheadDescent: -196
HheadDOffset: 0
OS2SubXSize: 700
OS2SubYSize: 650
OS2SubXOff: 0
OS2SubYOff: 140
OS2SupXSize: 700
OS2SupYSize: 650
OS2SupXOff: 0
OS2SupYOff: 477
OS2StrikeYSize: 50
OS2StrikeYPos: 250
OS2Vendor: 'pyrs'
OS2CodePages: 00000001.00000000
OS2UnicodeRanges: 800000af.5800004a.14000000.00000000
Lookup: 258 0 0 "'kern' Horizontal Kerning in Latin lookup 0"  {"'kern' Horizontal Kerning in Latin lookup 0 subtable"  } ['kern' ('DFLT' <'dflt' > 'latn' <'dflt' > ) ]
MarkAttachClasses: 1
DEI: 91125
TtTable: prep
PUSHW_1
 511
SCANCTRL
PUSHB_1
 4
SCANTYPE
EndTTInstrs
TtTable: fpgm
PUSHW_1
 0
FDEF
MPPEM
PUSHW_1
 9
LT
IF
PUSHB_2
 1
 1
INSTCTRL
EIF
PUSHW_1
 511
SCANCTRL
PUSHW_1
 68
SCVTCI
PUSHW_2
 9
 3
SDS
SDB
ENDF
PUSHW_1
 1
FDEF
DUP
DUP
RCVT
ROUND[Black]
WCVTP
PUSHB_1
 1
ADD
ENDF
PUSHW_1
 2
FDEF
PUSHW_1
 1
LOOPCALL
POP
ENDF
PUSHW_1
 3
FDEF
DUP
GC[cur]
PUSHB_1
 3
CINDEX
GC[cur]
GT
IF
SWAP
EIF
DUP
ROLL
DUP
ROLL
MD[grid]
ABS
ROLL
DUP
GC[cur]
DUP
ROUND[Grey]
SUB
ABS
PUSHB_1
 4
CINDEX
GC[cur]
DUP
ROUND[Grey]
SUB
ABS
GT
IF
SWAP
NEG
ROLL
EIF
MDAP[rnd]
DUP
PUSHB_1
 0
GTEQ
IF
ROUND[Black]
DUP
PUSHB_1
 0
EQ
IF
POP
PUSHB_1
 64
EIF
ELSE
ROUND[Black]
DUP
PUSHB_1
 0
EQ
IF
POP
PUSHB_1
 64
NEG
EIF
EIF

StartChar: .notdef
Encoding: 65536 -1 0
Width: 1015
Flags: W
LayerCount: 2
Fore
SplineSet
745 351 m 1,0,-1
 745 367 l 1,1,-1
 935 367 l 1,2,-1
 935 112 l 1,3,-1
 819 -1 l 1,4,-1
 532 -1 l 1,5,-1
 449 80 l 1,6,-1
 417 80 l 1,7,-1
 417 2 l 1,8,-1
 100 2 l 1,9,-1
 100 274 l 1,10,-1
 179 274 l 1,11,-1
 179 84 l 1,12,-1
 339 84 l 1,13,-1
 339 292 l 1,14,-1
 100 292 l 1,15,-1
 100 573 l 1,16,-1
 417 573 l 1,17,-1
 417 546 l 1,18,-1
 446 546 l 1,19,-1
 510 608 l 1,20,-1
 510 806 l 1,21,-1
 677 806 l 1,22,-1
 757 726 l 1,23,-1
 757 575 l 1,24,-1
 855 575 l 1,25,-1
 855 575 l 1,26,-1
 935 492 l 1,27,-1
 935 384 l 1,28,-1
 859 384 l 1,29,-1
 859 461 l 1,30,-1
 858 461 l 1,31,-1
 825 492 l 1,32,-1
 825 493 l 1,33,-1
 680 493 l 1,34,-1
 680 695 l 1,35,-1
 647 726 l 1,36,-1
 589 726 l 1,37,-1
 589 576 l 1,38,-1
 480 467 l 1,39,-1
 417 467 l 1,40,-1
 417 324 l 1,41,-1
 339 324 l 1,42,-1
 339 494 l 1,43,-1
 179 494 l 1,44,-1
 179 308 l 1,45,-1
 417 308 l 1,46,-1
 417 158 l 1,47,-1
 482 158 l 1,48,-1
 561 83 l 1,49,-1
 790 83 l 1,50,-1
 859 147 l 1,51,-1
 859 351 l 1,52,-1
 745 351 l 1,53,-1
 745 351 l 1,0,-1
EndSplineSet
EndChar

StartChar: B
Encoding: 66 66 1
Width: 869
Flags: W
LayerCount: 2
Fore
SplineSet
100 575 m 1,0,-1
 420 575 l 1,1,-1
 420 462 l 1,2,-1
 226 462 l 1,3,-1
 226 344 l 1,4,-1
 420 344 l 1,5,-1
 420 230 l 1,6,-1
 226 230 l 1,7,-1
 226 117 l 1,8,-1
 420 117 l 1,9,-1
 420 0 l 1,10,-1
 100 0 l 1,11,-1
 100 575 l 1,0,-1
789 68 m 1,12,-1
 789 243 l 1,13,-1
 695 287 l 1,14,-1
 789 332 l 1,15,-1
 789 506 l 1,16,-1
 676 575 l 1,17,-1
 469 575 l 1,18,-1
 469 462 l 1,19,-1
 663 462 l 1,20,-1
 663 344 l 1,21,-1
 469 344 l 1,22,-1
 469 230 l 1,23,-1
 663 230 l 1,24,-1
 663 117 l 1,25,-1
 469 117 l 1,26,-1
 469 0 l 1,27,-1
 676 0 l 1,28,-1
 789 68 l 1,12,-1
EndSplineSet
EndChar

StartChar: C
Encoding: 67 67 2
Width: 853
Flags: W
LayerCount: 2
Fore
SplineSet
80 506 m 1,0,-1
 197 575 l 1,1,-1
 404 575 l 1,2,-1
 404 462 l 1,3,-1
 210 462 l 1,4,-1
 210 117 l 1,5,-1
 400 117 l 1,6,-1
 400 0 l 1,7,-1
 197 0 l 1,8,-1
 80 68 l 1,9,-1
 80 506 l 1,0,-1
643 186 m 1,10,-1
 643 117 l 1,11,-1
 453 117 l 1,12,-1
 453 0 l 1,13,-1
 656 0 l 1,14,-1
 773 68 l 1,15,-1
 773 186 l 1,16,-1
 643 186 l 1,10,-1
773 392 m 1,17,-1
 773 506 l 1,18,-1
 656 575 l 1,19,-1
 449 575 l 1,20,-1
 449 462 l 1,21,-1
 643 462 l 1,22,-1
 643 392 l 1,23,-1
 773 392 l 1,17,-1
EndSplineSet
EndChar

StartChar: A
Encoding: 65 65 3
Width: 849
Flags: W
LayerCount: 2
Fore
SplineSet
80 506 m 1,0,-1
 194 575 l 1,1,-1
 400 575 l 1,2,-1
 400 462 l 1,3,-1
 206 462 l 1,4,-1
 206 344 l 1,5,-1
 400 344 l 1,6,-1
 400 230 l 1,7,-1
 206 230 l 1,8,-1
 206 0 l 1,9,-1
 80 0 l 1,10,-1
 80 506 l 1,11,-1
 80 506 l 1,0,-1
769 506 m 1,12,-1
 651 575 l 1,13,-1
 445 575 l 1,14,-1
 445 462 l 1,15,-1
 643 462 l 1,16,-1
 643 344 l 1,17,-1
 445 344 l 1,18,-1
 445 230 l 1,19,-1
 643 230 l 1,20,-1
 643 0 l 1,21,-1
 769 0 l 1,22,-1
 769 506 l 1,23,-1
 769 506 l 1,12,-1
EndSplineSet
EndChar

StartChar: D
Encoding: 68 68 4
Width: 869
Flags: W
LayerCount: 2
Fore
SplineSet
100 575 m 1,0,-1
 420 575 l 1,1,-1
 420 462 l 1,2,-1
 226 462 l 1,3,-1
 226 117 l 1,4,-1
 420 117 l 1,5,-1
 420 0 l 1,6,-1
 100 0 l 1,7,-1
 100 575 l 1,0,-1
789 506 m 1,8,-1
 676 575 l 1,9,-1
 469 575 l 1,10,-1
 469 462 l 1,11,-1
 663 462 l 1,12,-1
 663 117 l 1,13,-1
 469 117 l 1,14,-1
 469 0 l 1,15,-1
 676 0 l 1,16,-1
 789 68 l 1,17,-1
 789 506 l 1,8,-1
EndSplineSet
EndChar

StartChar: E
Encoding: 69 69 5
Width: 819
Flags: W
LayerCount: 2
Fore
SplineSet
100 575 m 1,0,-1
 420 575 l 1,1,-1
 420 457 l 1,2,-1
 226 457 l 1,3,-1
 226 344 l 1,4,-1
 420 344 l 1,5,-1
 420 230 l 1,6,-1
 226 230 l 1,7,-1
 226 113 l 1,8,-1
 416 113 l 1,9,-1
 416 0 l 1,10,-1
 100 0 l 1,11,-1
 100 575 l 1,12,-1
 100 575 l 1,0,-1
469 113 m 1,13,-1
 469 0 l 1,14,-1
 789 0 l 1,15,-1
 789 113 l 1,16,-1
 469 113 l 1,17,-1
 469 113 l 1,13,-1
789 457 m 1,18,-1
 789 575 l 1,19,-1
 465 575 l 1,20,-1
 465 457 l 1,21,-1
 789 457 l 1,22,-1
 789 457 l 1,18,-1
627 230 m 1,23,-1
 627 344 l 1,24,-1
 465 344 l 1,25,-1
 465 230 l 1,26,-1
 627 230 l 1,27,-1
 627 230 l 1,23,-1
EndSplineSet
EndChar

StartChar: F
Encoding: 70 70 6
Width: 799
Flags: W
LayerCount: 2
Fore
SplineSet
100 575 m 1,0,-1
 420 575 l 1,1,-1
 420 457 l 1,2,-1
 226 457 l 1,3,-1
 226 344 l 1,4,-1
 420 344 l 1,5,-1
 420 227 l 1,6,-1
 226 227 l 1,7,-1
 226 0 l 1,8,-1
 100 0 l 1,9,-1
 100 575 l 1,10,-1
 100 575 l 1,0,-1
789 457 m 1,11,-1
 789 575 l 1,12,-1
 469 575 l 1,13,-1
 469 457 l 1,14,-1
 789 457 l 1,15,-1
 789 457 l 1,11,-1
631 227 m 1,16,-1
 631 344 l 1,17,-1
 469 344 l 1,18,-1
 469 227 l 1,19,-1
 631 227 l 1,20,-1
 631 227 l 1,16,-1
EndSplineSet
EndChar

StartChar: G
Encoding: 71 71 7
Width: 853
Flags: W
LayerCount: 2
Fore
SplineSet
80 506 m 1,0,-1
 197 575 l 1,1,-1
 404 575 l 1,2,-1
 404 457 l 1,3,-1
 210 457 l 1,4,-1
 210 113 l 1,5,-1
 400 113 l 1,6,-1
 400 0 l 1,7,-1
 197 0 l 1,8,-1
 80 68 l 1,9,-1
 80 506 l 1,0,-1
773 389 m 1,10,-1
 773 506 l 1,11,-1
 656 575 l 1,12,-1
 449 575 l 1,13,-1
 449 457 l 1,14,-1
 643 457 l 1,15,-1
 643 389 l 1,16,-1
 773 389 l 1,10,-1
773 344 m 1,17,-1
 449 344 l 1,18,-1
 449 230 l 1,19,-1
 643 230 l 1,20,-1
 643 113 l 1,21,-1
 453 113 l 1,22,-1
 453 0 l 1,23,-1
 656 0 l 1,24,-1
 773 68 l 1,25,-1
 773 344 l 1,17,-1
EndSplineSet
EndChar

StartChar: H
Encoding: 72 72 8
Width: 889
Flags: W
LayerCount: 2
Fore
SplineSet
100 575 m 1,0,-1
 226 575 l 1,1,-1
 226 344 l 1,2,-1
 420 344 l 1,3,-1
 420 230 l 1,4,-1
 226 230 l 1,5,-1
 226 0 l 1,6,-1
 100 0 l 1,7,-1
 100 575 l 1,8,-1
 100 575 l 1,0,-1
789 575 m 1,9,-1
 663 575 l 1,10,-1
 663 344 l 1,11,-1
 469 344 l 1,12,-1
 469 230 l 1,13,-1
 663 230 l 1,14,-1
 663 0 l 1,15,-1
 789 0 l 1,16,-1
 789 575 l 1,17,-1
 789 575 l 1,9,-1
EndSplineSet
EndChar

StartChar: I
Encoding: 73 73 9
Width: 286
Flags: W
LayerCount: 2
Fore
SplineSet
80 575 m 1,0,-1
 206 575 l 1,1,-1
 206 0 l 1,2,-1
 80 0 l 1,3,-1
 80 575 l 1,4,-1
 80 575 l 1,0,-1
EndSplineSet
EndChar

StartChar: J
Encoding: 74 74 10
Width: 789
Flags: W
LayerCount: 2
Fore
SplineSet
699 68 m 1,0,-1
 586 0 l 1,1,-1
 379 0 l 1,2,-1
 379 113 l 1,3,-1
 573 113 l 1,4,-1
 573 575 l 1,5,-1
 699 575 l 1,6,-1
 699 68 l 1,0,-1
140 182 m 1,7,-1
 140 113 l 1,8,-1
 330 113 l 1,9,-1
 330 0 l 1,10,-1
 127 0 l 1,11,-1
 10 68 l 1,12,-1
 10 182 l 1,13,-1
 140 182 l 1,7,-1
EndSplineSet
EndChar

StartChar: K
Encoding: 75 75 11
Width: 799
Flags: W
LayerCount: 2
Fore
SplineSet
100 575 m 1,0,-1
 226 575 l 1,1,-1
 226 344 l 1,2,-1
 282 344 l 1,3,-1
 282 230 l 1,4,-1
 226 230 l 1,5,-1
 226 0 l 1,6,-1
 100 0 l 1,7,-1
 100 575 l 1,0,-1
420 287 m 1,8,-1
 789 518 l 1,9,-1
 671 575 l 1,10,-1
 319 344 l 1,11,-1
 319 230 l 1,12,-1
 671 0 l 1,13,-1
 789 57 l 1,14,-1
 420 287 l 1,8,-1
EndSplineSet
EndChar

StartChar: L
Encoding: 76 76 12
Width: 799
Flags: W
LayerCount: 2
Fore
SplineSet
100 575 m 1,0,-1
 226 575 l 1,1,-1
 226 117 l 1,2,-1
 416 117 l 1,3,-1
 416 0 l 1,4,-1
 100 0 l 1,5,-1
 100 575 l 1,6,-1
 100 575 l 1,0,-1
469 117 m 1,7,-1
 469 0 l 1,8,-1
 789 0 l 1,9,-1
 789 117 l 1,10,-1
 469 117 l 1,11,-1
 469 117 l 1,7,-1
EndSplineSet
EndChar

StartChar: M
Encoding: 77 77 13
Width: 889
Flags: W
LayerCount: 2
Fore
SplineSet
100 575 m 1,0,-1
 214 575 l 1,1,-1
 420 381 l 1,2,-1
 420 230 l 1,3,-1
 226 413 l 1,4,-1
 226 0 l 1,5,-1
 100 0 l 1,6,-1
 100 575 l 1,7,-1
 100 575 l 1,0,-1
789 575 m 1,8,-1
 676 575 l 1,9,-1
 469 381 l 1,10,-1
 469 230 l 1,11,-1
 663 413 l 1,12,-1
 663 0 l 1,13,-1
 789 0 l 1,14,-1
 789 575 l 1,15,-1
 789 575 l 1,8,-1
EndSplineSet
EndChar

StartChar: N
Encoding: 78 78 14
Width: 889
Flags: W
LayerCount: 2
Fore
SplineSet
100 575 m 1,0,-1
 214 575 l 1,1,-1
 420 381 l 1,2,-1
 420 230 l 1,3,-1
 226 417 l 1,4,-1
 226 0 l 1,5,-1
 100 0 l 1,6,-1
 100 575 l 1,0,-1
663 162 m 1,7,-1
 663 575 l 1,8,-1
 789 575 l 1,9,-1
 789 0 l 1,10,-1
 671 0 l 1,11,-1
 465 198 l 1,12,-1
 465 344 l 1,13,-1
 663 162 l 1,7,-1
EndSplineSet
EndChar

StartChar: O
Encoding: 79 79 15
Width: 849
Flags: W
LayerCount: 2
Fore
SplineSet
80 506 m 1,0,-1
 197 575 l 1,1,-1
 404 575 l 1,2,-1
 404 462 l 1,3,-1
 206 462 l 1,4,-1
 206 117 l 1,5,-1
 400 117 l 1,6,-1
 400 0 l 1,7,-1
 197 0 l 1,8,-1
 80 68 l 1,9,-1
 80 506 l 1,10,-1
 80 506 l 1,0,-1
769 506 m 1,11,-1
 656 575 l 1,12,-1
 449 575 l 1,13,-1
 449 462 l 1,14,-1
 643 462 l 1,15,-1
 643 117 l 1,16,-1
 449 117 l 1,17,-1
 449 0 l 1,18,-1
 656 0 l 1,19,-1
 769 68 l 1,20,-1
 769 506 l 1,21,-1
 769 506 l 1,11,-1
EndSplineSet
EndChar

StartChar: P
Encoding: 80 80 16
Width: 823
Flags: W
LayerCount: 2
Fore
SplineSet
100 575 m 1,0,-1
 424 575 l 1,1,-1
 424 462 l 1,2,-1
 230 462 l 1,3,-1
 230 344 l 1,4,-1
 424 344 l 1,5,-1
 424 227 l 1,6,-1
 230 227 l 1,7,-1
 230 0 l 1,8,-1
 100 0 l 1,9,-1
 100 575 l 1,10,-1
 100 575 l 1,0,-1
793 295 m 1,11,-1
 793 506 l 1,12,-1
 676 575 l 1,13,-1
 469 575 l 1,14,-1
 469 462 l 1,15,-1
 663 462 l 1,16,-1
 663 344 l 1,17,-1
 469 344 l 1,18,-1
 469 227 l 1,19,-1
 676 227 l 1,20,-1
 793 295 l 1,21,-1
 793 295 l 1,11,-1
EndSplineSet
EndChar

StartChar: Q
Encoding: 81 81 17
Width: 849
Flags: W
LayerCount: 2
Fore
SplineSet
80 506 m 1,0,-1
 197 575 l 1,1,-1
 404 575 l 1,2,-1
 404 462 l 1,3,-1
 206 462 l 1,4,-1
 206 117 l 1,5,-1
 400 117 l 1,6,-1
 400 0 l 1,7,-1
 197 0 l 1,8,-1
 80 68 l 1,9,-1
 80 506 l 1,0,-1
769 506 m 1,10,-1
 769 68 l 1,11,-1
 656 0 l 1,12,-1
 656 0 l 1,13,-1
 656 0 l 1,14,-1
 656 0 l 1,15,-1
 449 0 l 1,16,-1
 449 117 l 1,17,-1
 534 117 l 1,18,-1
 449 198 l 1,19,-1
 530 275 l 1,20,-1
 643 162 l 1,21,-1
 643 462 l 1,22,-1
 449 462 l 1,23,-1
 449 575 l 1,24,-1
 656 575 l 1,25,-1
 769 506 l 1,10,-1
EndSplineSet
EndChar

StartChar: R
Encoding: 82 82 18
Width: 859
Flags: W
LayerCount: 2
Fore
SplineSet
100 575 m 1,0,-1
 420 575 l 1,1,-1
 420 457 l 1,2,-1
 226 457 l 1,3,-1
 226 344 l 1,4,-1
 420 344 l 1,5,-1
 420 227 l 1,6,-1
 226 227 l 1,7,-1
 226 0 l 1,8,-1
 100 0 l 1,9,-1
 100 575 l 1,10,-1
 100 575 l 1,0,-1
789 0 m 1,11,-1
 789 238 l 1,12,-1
 695 287 l 1,13,-1
 789 332 l 1,14,-1
 789 506 l 1,15,-1
 671 575 l 1,16,-1
 465 575 l 1,17,-1
 465 457 l 1,18,-1
 663 457 l 1,19,-1
 663 344 l 1,20,-1
 465 344 l 1,21,-1
 465 227 l 1,22,-1
 663 227 l 1,23,-1
 663 0 l 1,24,-1
 789 0 l 1,25,-1
 789 0 l 1,11,-1
EndSplineSet
EndChar

StartChar: S
Encoding: 83 83 19
Width: 829
Flags: W
LayerCount: 2
Fore
SplineSet
70 506 m 1,0,-1
 184 575 l 1,1,-1
 390 575 l 1,2,-1
 390 457 l 1,3,-1
 192 457 l 1,4,-1
 192 344 l 1,5,-1
 390 344 l 1,6,-1
 390 227 l 1,7,-1
 184 227 l 1,8,-1
 70 295 l 1,9,-1
 70 506 l 1,0,-1
759 275 m 1,10,-1
 641 344 l 1,11,-1
 435 344 l 1,12,-1
 435 227 l 1,13,-1
 633 227 l 1,14,-1
 633 113 l 1,15,-1
 439 113 l 1,16,-1
 439 0 l 1,17,-1
 641 0 l 1,18,-1
 759 68 l 1,19,-1
 759 275 l 1,10,-1
196 182 m 1,20,-1
 196 113 l 1,21,-1
 390 113 l 1,22,-1
 390 0 l 1,23,-1
 187 0 l 1,24,-1
 70 68 l 1,25,-1
 70 182 l 1,26,-1
 196 182 l 1,20,-1
759 389 m 1,27,-1
 759 506 l 1,28,-1
 641 575 l 1,29,-1
 435 575 l 1,30,-1
 435 457 l 1,31,-1
 633 457 l 1,32,-1
 633 389 l 1,33,-1
 759 389 l 1,27,-1
EndSplineSet
EndChar

StartChar: T
Encoding: 84 84 20
Width: 749
Flags: W
LayerCount: 2
Fore
SplineSet
719 462 m 1,0,-1
 431 462 l 1,1,-1
 431 0 l 1,2,-1
 293 0 l 1,3,-1
 293 462 l 1,4,-1
 30 462 l 1,5,-1
 30 575 l 1,6,-1
 719 575 l 1,7,-1
 719 462 l 1,0,-1
EndSplineSet
EndChar

StartChar: U
Encoding: 85 85 21
Width: 849
Flags: W
LayerCount: 2
Fore
SplineSet
80 575 m 1,0,-1
 206 575 l 1,1,-1
 206 117 l 1,2,-1
 400 117 l 1,3,-1
 400 0 l 1,4,-1
 194 0 l 1,5,-1
 80 68 l 1,6,-1
 80 575 l 1,7,-1
 80 575 l 1,0,-1
769 575 m 1,8,-1
 643 575 l 1,9,-1
 643 117 l 1,10,-1
 449 117 l 1,11,-1
 449 0 l 1,12,-1
 656 0 l 1,13,-1
 769 68 l 1,14,-1
 769 575 l 1,15,-1
 769 575 l 1,8,-1
EndSplineSet
EndChar

StartChar: V
Encoding: 86 86 22
Width: 709
Flags: W
LayerCount: 2
Fore
SplineSet
124 575 m 1,0,-1
 330 230 l 1,1,-1
 330 0 l 1,2,-1
 10 538 l 1,3,-1
 124 575 l 1,4,-1
 124 575 l 1,0,-1
586 575 m 1,5,-1
 379 230 l 1,6,-1
 379 0 l 1,7,-1
 699 538 l 1,8,-1
 586 575 l 1,9,-1
 586 575 l 1,5,-1
EndSplineSet
EndChar

StartChar: W
Encoding: 87 87 23
Width: 729
Flags: W
LayerCount: 2
Fore
SplineSet
137 0 m 1,0,-1
 20 538 l 1,1,-1
 137 575 l 1,2,-1
 227 138 l 1,3,-1
 344 275 l 1,4,-1
 344 105 l 1,5,-1
 251 0 l 1,6,-1
 137 0 l 1,0,-1
596 0 m 1,7,-1
 482 0 l 1,8,-1
 389 105 l 1,9,-1
 389 275 l 1,10,-1
 502 138 l 1,11,-1
 596 575 l 1,12,-1
 709 538 l 1,13,-1
 596 0 l 1,14,-1
 596 0 l 1,7,-1
EndSplineSet
EndChar

StartChar: X
Encoding: 88 88 24
Width: 749
Flags: W
LayerCount: 2
Fore
SplineSet
350 194 m 1,0,-1
 143 0 l 1,1,-1
 30 36 l 1,2,-1
 294 287 l 1,3,-1
 30 538 l 1,4,-1
 143 575 l 1,5,-1
 350 381 l 1,6,-1
 350 194 l 1,0,-1
451 287 m 1,7,-1
 719 36 l 1,8,-1
 602 0 l 1,9,-1
 395 194 l 1,10,-1
 395 381 l 1,11,-1
 602 575 l 1,12,-1
 719 538 l 1,13,-1
 451 287 l 1,7,-1
EndSplineSet
EndChar

StartChar: Y
Encoding: 89 89 25
Width: 749
Flags: W
LayerCount: 2
Fore
SplineSet
431 263 m 1,0,-1
 431 0 l 1,1,-1
 318 0 l 1,2,-1
 318 263 l 1,3,-1
 30 538 l 1,4,-1
 144 575 l 1,5,-1
 374 356 l 1,6,-1
 374 356 l 1,7,-1
 606 575 l 1,8,-1
 719 538 l 1,9,-1
 431 263 l 1,0,-1
EndSplineSet
EndChar

StartChar: Z
Encoding: 90 90 26
Width: 753
Flags: W
LayerCount: 2
Fore
SplineSet
743 575 m 1,0,-1
 411 219 l 1,1,-1
 411 392 l 1,2,-1
 468 462 l 1,3,-1
 411 462 l 1,4,-1
 411 575 l 1,5,-1
 743 575 l 1,0,-1
30 0 m 1,6,-1
 362 356 l 1,7,-1
 362 186 l 1,8,-1
 306 117 l 1,9,-1
 362 117 l 1,10,-1
 362 0 l 1,11,-1
 30 0 l 1,6,-1
362 575 m 1,12,-1
 362 462 l 1,13,-1
 46 462 l 1,14,-1
 46 575 l 1,15,-1
 362 575 l 1,12,-1
730 117 m 1,16,-1
 730 0 l 1,17,-1
 411 0 l 1,18,-1
 411 117 l 1,19,-1
 730 117 l 1,16,-1
EndSplineSet
EndChar

StartChar: Aring
Encoding: 197 197 27
Width: 869
Flags: W
LayerCount: 2
Fore
SplineSet
653 0 m 1,0,-1
 653 230 l 1,1,-1
 459 230 l 1,2,-1
 459 344 l 1,3,-1
 653 344 l 1,4,-1
 653 462 l 1,5,-1
 459 462 l 1,6,-1
 459 462 l 1,7,-1
 459 514 l 1,8,-1
 528 543 l 1,9,-1
 528 632 l 1,10,-1
 459 660 l 1,11,-1
 459 713 l 1,12,-1
 572 668 l 1,13,-1
 572 575 l 1,14,-1
 666 575 l 1,15,-1
 779 506 l 1,16,-1
 779 0 l 1,17,-1
 653 0 l 1,0,-1
414 514 m 1,18,-1
 414 462 l 1,19,-1
 414 462 l 1,20,-1
 216 462 l 1,21,-1
 216 344 l 1,22,-1
 414 344 l 1,23,-1
 414 230 l 1,24,-1
 216 230 l 1,25,-1
 216 0 l 1,26,-1
 90 0 l 1,27,-1
 90 506 l 1,28,-1
 207 575 l 1,29,-1
 297 575 l 1,30,-1
 297 668 l 1,31,-1
 414 713 l 1,32,-1
 414 660 l 1,33,-1
 342 632 l 1,34,-1
 342 543 l 1,35,-1
 414 514 l 1,18,-1
EndSplineSet
EndChar

StartChar: period
Encoding: 46 46 29
Width: 298
Flags: W
LayerCount: 2
Fore
SplineSet
80 138 m 1,0,-1
 218 138 l 1,1,-1
 218 0 l 1,2,-1
 80 0 l 1,3,-1
 80 138 l 1,0,-1
EndSplineSet
EndChar

StartChar: quotesinglbase
Encoding: 44 44 30
Width: 274
Flags: W
LayerCount: 2
Fore
SplineSet
80 138 m 1,0,-1
 194 138 l 1,1,-1
 194 0 l 1,2,-1
 80 -69 l 1,3,-1
 80 138 l 1,0,-1
EndSplineSet
EndChar

StartChar: question
Encoding: 63 63 31
Width: 789
Flags: W
LayerCount: 2
Fore
SplineSet
289 141 m 1,0,-1
 427 141 l 1,1,-1
 427 0 l 1,2,-1
 289 0 l 1,3,-1
 289 141 l 1,0,-1
739 300 m 1,4,-1
 626 230 l 1,5,-1
 427 230 l 1,6,-1
 427 194 l 1,7,-1
 302 194 l 1,8,-1
 302 275 l 1,9,-1
 419 344 l 1,10,-1
 613 344 l 1,11,-1
 613 462 l 1,12,-1
 419 462 l 1,13,-1
 419 575 l 1,14,-1
 626 575 l 1,15,-1
 739 506 l 1,16,-1
 739 300 l 1,4,-1
50 392 m 1,17,-1
 50 506 l 1,18,-1
 164 575 l 1,19,-1
 370 575 l 1,20,-1
 370 462 l 1,21,-1
 164 462 l 1,22,-1
 164 392 l 1,23,-1
 50 392 l 1,17,-1
EndSplineSet
EndChar

StartChar: exclam
Encoding: 33 33 32
Width: 238
Flags: W
LayerCount: 2
Fore
SplineSet
50 138 m 1,0,-1
 188 138 l 1,1,-1
 188 0 l 1,2,-1
 50 0 l 1,3,-1
 50 138 l 1,0,-1
50 575 m 1,4,-1
 188 575 l 1,5,-1
 188 198 l 1,6,-1
 50 198 l 1,7,-1
 50 575 l 1,4,-1
EndSplineSet
EndChar

StartChar: a
Encoding: 97 97 35
Width: 770
Flags: W
LayerCount: 2
Fore
SplineSet
80 195 m 1,0,-1
 194 264 l 1,1,-1
 358 264 l 1,2,-1
 358 187 l 1,3,-1
 207 187 l 1,4,-1
 207 105 l 1,5,-1
 358 105 l 1,6,-1
 358 -1 l 1,7,-1
 194 -1 l 1,8,-1
 80 68 l 1,9,-1
 80 195 l 1,0,-1
80 301 m 1,10,-1
 80 370 l 1,11,-1
 194 440 l 1,12,-1
 358 440 l 1,13,-1
 358 346 l 1,14,-1
 207 346 l 1,15,-1
 207 301 l 1,16,-1
 80 301 l 1,10,-1
680 370 m 1,17,-1
 566 440 l 1,18,-1
 402 440 l 1,19,-1
 402 346 l 1,20,-1
 553 346 l 1,21,-1
 553 264 l 1,22,-1
 402 264 l 1,23,-1
 402 187 l 1,24,-1
 553 187 l 1,25,-1
 553 105 l 1,26,-1
 406 105 l 1,27,-1
 406 -1 l 1,28,-1
 680 -1 l 1,29,-1
 680 370 l 1,17,-1
EndSplineSet
EndChar

StartChar: b
Encoding: 98 98 36
Width: 776
Flags: W
LayerCount: 2
Fore
SplineSet
100 576 m 1,0,-1
 226 576 l 1,1,-1
 226 438 l 1,2,-1
 376 438 l 1,3,-1
 376 345 l 1,4,-1
 226 345 l 1,5,-1
 226 105 l 1,6,-1
 372 105 l 1,7,-1
 372 0 l 1,8,-1
 100 0 l 1,9,-1
 100 576 l 1,0,-1
696 369 m 1,10,-1
 582 438 l 1,11,-1
 420 438 l 1,12,-1
 420 345 l 1,13,-1
 574 345 l 1,14,-1
 574 105 l 1,15,-1
 424 105 l 1,16,-1
 424 0 l 1,17,-1
 582 0 l 1,18,-1
 696 69 l 1,19,-1
 696 369 l 1,10,-1
EndSplineSet
EndChar

StartChar: c
Encoding: 99 99 37
Width: 760
Flags: W
LayerCount: 2
Fore
SplineSet
80 372 m 1,0,-1
 194 441 l 1,1,-1
 358 441 l 1,2,-1
 358 347 l 1,3,-1
 207 347 l 1,4,-1
 207 106 l 1,5,-1
 354 106 l 1,6,-1
 354 0 l 1,7,-1
 194 0 l 1,8,-1
 80 69 l 1,9,-1
 80 372 l 1,0,-1
680 302 m 1,10,-1
 680 372 l 1,11,-1
 566 441 l 1,12,-1
 403 441 l 1,13,-1
 403 347 l 1,14,-1
 554 347 l 1,15,-1
 554 302 l 1,16,-1
 680 302 l 1,10,-1
680 139 m 1,17,-1
 680 69 l 1,18,-1
 566 0 l 1,19,-1
 403 0 l 1,20,-1
 403 106 l 1,21,-1
 554 106 l 1,22,-1
 554 139 l 1,23,-1
 680 139 l 1,17,-1
EndSplineSet
EndChar

StartChar: d
Encoding: 100 100 38
Width: 776
Flags: W
LayerCount: 2
Fore
SplineSet
676 0 m 1,0,-1
 404 0 l 1,1,-1
 404 105 l 1,2,-1
 550 105 l 1,3,-1
 550 345 l 1,4,-1
 400 345 l 1,5,-1
 400 438 l 1,6,-1
 550 438 l 1,7,-1
 550 576 l 1,8,-1
 676 576 l 1,9,-1
 676 0 l 1,0,-1
80 369 m 1,10,-1
 194 438 l 1,11,-1
 356 438 l 1,12,-1
 356 345 l 1,13,-1
 202 345 l 1,14,-1
 202 105 l 1,15,-1
 352 105 l 1,16,-1
 352 0 l 1,17,-1
 194 0 l 1,18,-1
 80 69 l 1,19,-1
 80 369 l 1,10,-1
EndSplineSet
EndChar

StartChar: e
Encoding: 101 101 39
Width: 764
Flags: W
LayerCount: 2
Fore
SplineSet
684 257 m 1,0,-1
 566 188 l 1,1,-1
 406 188 l 1,2,-1
 406 265 l 1,3,-1
 557 265 l 1,4,-1
 557 347 l 1,5,-1
 406 347 l 1,6,-1
 406 441 l 1,7,-1
 566 441 l 1,8,-1
 684 371 l 1,9,-1
 684 257 l 1,0,-1
684 139 m 1,10,-1
 684 69 l 1,11,-1
 566 0 l 1,12,-1
 406 0 l 1,13,-1
 406 106 l 1,14,-1
 553 106 l 1,15,-1
 553 139 l 1,16,-1
 684 139 l 1,10,-1
80 69 m 1,17,-1
 198 0 l 1,18,-1
 357 0 l 1,19,-1
 357 106 l 1,20,-1
 206 106 l 1,21,-1
 206 188 l 1,22,-1
 357 188 l 1,23,-1
 357 265 l 1,24,-1
 206 265 l 1,25,-1
 206 347 l 1,26,-1
 357 347 l 1,27,-1
 357 441 l 1,28,-1
 198 441 l 1,29,-1
 80 371 l 1,30,-1
 80 69 l 1,17,-1
EndSplineSet
EndChar

StartChar: f
Encoding: 102 102 40
Width: 521
Flags: W
LayerCount: 2
Fore
SplineSet
295 344 m 1,0,-1
 446 344 l 1,1,-1
 446 264 l 1,2,-1
 295 264 l 1,3,-1
 295 344 l 1,0,-1
251 0 m 1,4,-1
 126 0 l 1,5,-1
 126 264 l 1,6,-1
 30 264 l 1,7,-1
 30 344 l 1,8,-1
 126 344 l 1,9,-1
 126 507 l 1,10,-1
 251 576 l 1,11,-1
 251 0 l 1,4,-1
446 437 m 1,12,-1
 446 483 l 1,13,-1
 295 483 l 1,14,-1
 295 576 l 1,15,-1
 458 576 l 1,16,-1
 571 507 l 1,17,-1
 571 437 l 1,18,-1
 446 437 l 1,12,-1
EndSplineSet
EndChar

StartChar: g
Encoding: 103 103 41
Width: 771
Flags: W
LayerCount: 2
Fore
SplineSet
80 -45 m 1,0,-1
 80 -126 l 1,1,-1
 197 -195 l 1,2,-1
 355 -195 l 1,3,-1
 355 -90 l 1,4,-1
 209 -90 l 1,5,-1
 209 -45 l 1,6,-1
 80 -45 l 1,0,-1
80 371 m 1,7,-1
 197 440 l 1,8,-1
 355 440 l 1,9,-1
 355 344 l 1,10,-1
 207 344 l 1,11,-1
 207 137 l 1,12,-1
 355 137 l 1,13,-1
 355 56 l 1,14,-1
 197 56 l 1,15,-1
 80 126 l 1,16,-1
 80 371 l 1,7,-1
681 440 m 1,17,-1
 405 440 l 1,18,-1
 405 344 l 1,19,-1
 554 344 l 1,20,-1
 554 137 l 1,21,-1
 405 137 l 1,22,-1
 405 56 l 1,23,-1
 554 56 l 1,24,-1
 554 -90 l 1,25,-1
 405 -90 l 1,26,-1
 405 -195 l 1,27,-1
 564 -195 l 1,28,-1
 681 -126 l 1,29,-1
 681 440 l 1,17,-1
EndSplineSet
EndChar

StartChar: h
Encoding: 104 104 42
Width: 785
Flags: W
LayerCount: 2
Fore
SplineSet
100 575 m 1,0,-1
 223 575 l 1,1,-1
 223 440 l 1,2,-1
 375 440 l 1,3,-1
 375 344 l 1,4,-1
 223 344 l 1,5,-1
 223 -1 l 1,6,-1
 100 -1 l 1,7,-1
 100 575 l 1,0,-1
695 371 m 1,8,-1
 582 440 l 1,9,-1
 419 440 l 1,10,-1
 419 344 l 1,11,-1
 569 344 l 1,12,-1
 569 -1 l 1,13,-1
 695 -1 l 1,14,-1
 695 371 l 1,8,-1
EndSplineSet
EndChar

StartChar: i
Encoding: 105 105 43
Width: 286
Flags: W
LayerCount: 2
Fore
SplineSet
206 440 m 1,0,-1
 206 -1 l 1,1,-1
 80 -1 l 1,2,-1
 80 440 l 1,3,-1
 206 440 l 1,0,-1
204 481 m 1,4,-1
 80 481 l 1,5,-1
 80 574 l 1,6,-1
 204 574 l 1,7,-1
 204 481 l 1,4,-1
EndSplineSet
EndChar

StartChar: j
Encoding: 106 106 44
Width: 335
Flags: W
LayerCount: 2
Fore
SplineSet
-210 -39 m 1,0,-1
 -210 -126 l 1,1,-1
 -94 -195 l 1,2,-1
 65 -195 l 1,3,-1
 65 -90 l 1,4,-1
 -84 -90 l 1,5,-1
 -84 -39 l 1,6,-1
 -210 -39 l 1,0,-1
234 440 m 1,7,-1
 111 440 l 1,8,-1
 111 -90 l 1,9,-1
 111 -195 l 1,10,-1
 234 -126 l 1,11,-1
 234 440 l 1,7,-1
235 480 m 1,12,-1
 111 481 l 1,13,-1
 111 574 l 1,14,-1
 235 574 l 1,15,-1
 235 480 l 1,12,-1
EndSplineSet
EndChar

StartChar: k
Encoding: 107 107 45
Width: 727
Flags: W
LayerCount: 2
Fore
SplineSet
100 575 m 1,0,-1
 226 575 l 1,1,-1
 226 262 l 1,2,-1
 282 262 l 1,3,-1
 282 189 l 1,4,-1
 226 189 l 1,5,-1
 226 -1 l 1,6,-1
 100 -1 l 1,7,-1
 100 575 l 1,0,-1
446 230 m 1,8,-1
 675 381 l 1,9,-1
 592 440 l 1,10,-1
 332 262 l 1,11,-1
 332 189 l 1,12,-1
 584 -1 l 1,13,-1
 697 68 l 1,14,-1
 446 230 l 1,8,-1
EndSplineSet
EndChar

StartChar: l
Encoding: 108 108 46
Width: 328
Flags: W
LayerCount: 2
Fore
SplineSet
100 575 m 1,0,-1
 228 575 l 1,1,-1
 228 -1 l 1,2,-1
 100 -1 l 1,3,-1
 100 575 l 1,0,-1
EndSplineSet
EndChar

StartChar: m
Encoding: 109 109 47
Width: 925
Flags: W
LayerCount: 2
Fore
SplineSet
100 440 m 1,0,-1
 225 440 l 1,1,-1
 225 397 l 1,2,-1
 379 440 l 1,3,-1
 379 346 l 1,4,-1
 225 346 l 1,5,-1
 225 1 l 1,6,-1
 100 1 l 1,7,-1
 100 440 l 1,0,-1
721 440 m 1,8,-1
 678 440 l 1,9,-1
 550 385 l 1,10,-1
 419 440 l 1,11,-1
 419 346 l 1,12,-1
 419 1 l 1,13,-1
 550 1 l 1,14,-1
 550 346 l 1,15,-1
 710 346 l 1,16,-1
 710 1 l 1,17,-1
 835 1 l 1,18,-1
 835 371 l 1,19,-1
 721 440 l 1,8,-1
EndSplineSet
EndChar

StartChar: n
Encoding: 110 110 48
Width: 789
Flags: W
LayerCount: 2
Fore
SplineSet
100 440 m 1,0,-1
 227 440 l 1,1,-1
 227 397 l 1,2,-1
 375 440 l 1,3,-1
 375 346 l 1,4,-1
 227 346 l 1,5,-1
 227 1 l 1,6,-1
 100 1 l 1,7,-1
 100 440 l 1,0,-1
699 371 m 1,8,-1
 581 440 l 1,9,-1
 423 440 l 1,10,-1
 423 346 l 1,11,-1
 574 346 l 1,12,-1
 574 1 l 1,13,-1
 699 1 l 1,14,-1
 699 371 l 1,8,-1
EndSplineSet
EndChar

StartChar: o
Encoding: 111 111 49
Width: 747
Flags: W
LayerCount: 2
Fore
SplineSet
80 371 m 1,0,-1
 197 440 l 1,1,-1
 355 440 l 1,2,-1
 355 346 l 1,3,-1
 205 346 l 1,4,-1
 205 108 l 1,5,-1
 355 108 l 1,6,-1
 355 1 l 1,7,-1
 197 1 l 1,8,-1
 80 70 l 1,9,-1
 80 371 l 1,0,-1
667 371 m 1,10,-1
 550 440 l 1,11,-1
 391 440 l 1,12,-1
 391 346 l 1,13,-1
 542 346 l 1,14,-1
 542 108 l 1,15,-1
 391 108 l 1,16,-1
 391 1 l 1,17,-1
 550 1 l 1,18,-1
 667 70 l 1,19,-1
 667 371 l 1,10,-1
EndSplineSet
EndChar

StartChar: p
Encoding: 112 112 50
Width: 777
Flags: W
LayerCount: 2
Fore
SplineSet
697 128 m 1,0,-1
 585 60 l 1,1,-1
 427 60 l 1,2,-1
 427 140 l 1,3,-1
 572 140 l 1,4,-1
 572 346 l 1,5,-1
 421 346 l 1,6,-1
 421 440 l 1,7,-1
 585 440 l 1,8,-1
 697 371 l 1,9,-1
 697 128 l 1,0,-1
100 440 m 1,10,-1
 377 440 l 1,11,-1
 377 346 l 1,12,-1
 227 346 l 1,13,-1
 227 140 l 1,14,-1
 372 140 l 1,15,-1
 372 60 l 1,16,-1
 227 60 l 1,17,-1
 227 -193 l 1,18,-1
 100 -193 l 1,19,-1
 100 440 l 1,10,-1
EndSplineSet
EndChar

StartChar: q
Encoding: 113 113 51
Width: 781
Flags: W
LayerCount: 2
Fore
SplineSet
80 371 m 1,0,-1
 198 440 l 1,1,-1
 357 440 l 1,2,-1
 357 346 l 1,3,-1
 207 346 l 1,4,-1
 207 140 l 1,5,-1
 357 140 l 1,6,-1
 357 60 l 1,7,-1
 198 60 l 1,8,-1
 80 128 l 1,9,-1
 80 371 l 1,0,-1
681 440 m 1,10,-1
 406 440 l 1,11,-1
 406 346 l 1,12,-1
 556 346 l 1,13,-1
 556 140 l 1,14,-1
 406 140 l 1,15,-1
 406 60 l 1,16,-1
 556 60 l 1,17,-1
 556 -193 l 1,18,-1
 681 -193 l 1,19,-1
 681 440 l 1,10,-1
EndSplineSet
EndChar

StartChar: r
Encoding: 114 114 52
Width: 560
Flags: W
LayerCount: 2
Fore
SplineSet
100 437 m 1,0,-1
 225 437 l 1,1,-1
 225 394 l 1,2,-1
 375 437 l 1,3,-1
 375 344 l 1,4,-1
 225 344 l 1,5,-1
 225 0 l 1,6,-1
 100 0 l 1,7,-1
 100 437 l 1,0,-1
550 382 m 1,8,-1
 420 437 l 1,9,-1
 420 301 l 1,10,-1
 550 301 l 1,11,-1
 550 382 l 1,8,-1
EndSplineSet
EndChar

StartChar: s
Encoding: 115 115 53
Width: 756
Flags: W
LayerCount: 2
Fore
SplineSet
676 69 m 1,0,-1
 562 0 l 1,1,-1
 401 0 l 1,2,-1
 401 105 l 1,3,-1
 555 105 l 1,4,-1
 555 186 l 1,5,-1
 404 186 l 1,6,-1
 404 264 l 1,7,-1
 562 264 l 1,8,-1
 676 194 l 1,9,-1
 676 69 l 1,0,-1
80 368 m 1,10,-1
 194 437 l 1,11,-1
 356 437 l 1,12,-1
 356 344 l 1,13,-1
 206 344 l 1,14,-1
 206 264 l 1,15,-1
 356 264 l 1,16,-1
 356 186 l 1,17,-1
 194 186 l 1,18,-1
 80 255 l 1,19,-1
 80 368 l 1,10,-1
206 139 m 1,20,-1
 206 105 l 1,21,-1
 356 105 l 1,22,-1
 356 0 l 1,23,-1
 194 0 l 1,24,-1
 80 69 l 1,25,-1
 80 139 l 1,26,-1
 206 139 l 1,20,-1
551 301 m 1,27,-1
 551 344 l 1,28,-1
 401 344 l 1,29,-1
 401 437 l 1,30,-1
 562 437 l 1,31,-1
 676 368 l 1,32,-1
 676 301 l 1,33,-1
 551 301 l 1,27,-1
EndSplineSet
EndChar

StartChar: t
Encoding: 116 116 54
Width: 576
Flags: W
LayerCount: 2
Fore
SplineSet
270 437 m 1,0,-1
 420 437 l 1,1,-1
 420 344 l 1,2,-1
 270 344 l 1,3,-1
 270 437 l 1,0,-1
546 150 m 1,4,-1
 546 69 l 1,5,-1
 432 0 l 1,6,-1
 270 0 l 1,7,-1
 270 105 l 1,8,-1
 420 105 l 1,9,-1
 420 150 l 1,10,-1
 546 150 l 1,4,-1
225 506 m 1,11,-1
 225 105 l 1,12,-1
 225 0 l 1,13,-1
 100 69 l 1,14,-1
 100 344 l 1,15,-1
 10 343 l 1,16,-1
 10 387 l 1,17,-1
 225 506 l 1,11,-1
EndSplineSet
EndChar

StartChar: u
Encoding: 117 117 55
Width: 786
Flags: W
LayerCount: 2
Fore
SplineSet
686 0 m 1,0,-1
 561 0 l 1,1,-1
 561 45 l 1,2,-1
 411 0 l 1,3,-1
 411 105 l 1,4,-1
 561 105 l 1,5,-1
 561 437 l 1,6,-1
 686 437 l 1,7,-1
 686 0 l 1,0,-1
90 69 m 1,8,-1
 203 0 l 1,9,-1
 365 0 l 1,10,-1
 365 105 l 1,11,-1
 216 105 l 1,12,-1
 216 437 l 1,13,-1
 90 437 l 1,14,-1
 90 69 l 1,8,-1
EndSplineSet
EndChar

StartChar: v
Encoding: 118 118 56
Width: 640
Flags: W
LayerCount: 2
Fore
SplineSet
136 437 m 1,0,-1
 301 186 l 1,1,-1
 301 0 l 1,2,-1
 262 0 l 1,3,-1
 10 401 l 1,4,-1
 136 437 l 1,0,-1
509 437 m 1,5,-1
 351 186 l 1,6,-1
 351 0 l 1,7,-1
 387 0 l 1,8,-1
 630 401 l 1,9,-1
 509 437 l 1,5,-1
EndSplineSet
EndChar

StartChar: w
Encoding: 119 119 57
Width: 734
Flags: W
LayerCount: 2
Fore
SplineSet
30 406 m 1,0,-1
 145 441 l 1,1,-1
 226 150 l 1,2,-1
 344 265 l 1,3,-1
 344 106 l 1,4,-1
 238 0 l 1,5,-1
 145 0 l 1,6,-1
 30 406 l 1,0,-1
599 0 m 1,7,-1
 496 0 l 1,8,-1
 389 106 l 1,9,-1
 389 265 l 1,10,-1
 504 150 l 1,11,-1
 575 441 l 1,12,-1
 704 406 l 1,13,-1
 599 0 l 1,7,-1
EndSplineSet
EndChar

StartChar: x
Encoding: 120 120 58
Width: 661
Flags: W
LayerCount: 2
Fore
SplineSet
356 314 m 1,0,-1
 491 441 l 1,1,-1
 631 406 l 1,2,-1
 414 233 l 1,3,-1
 631 37 l 1,4,-1
 491 0 l 1,5,-1
 356 138 l 1,6,-1
 356 314 l 1,0,-1
308 314 m 1,7,-1
 167 441 l 1,8,-1
 30 406 l 1,9,-1
 247 233 l 1,10,-1
 30 37 l 1,11,-1
 167 0 l 1,12,-1
 308 138 l 1,13,-1
 308 314 l 1,7,-1
EndSplineSet
EndChar

StartChar: y.001
Encoding: 255 255 59
Width: 791
Flags: W
LayerCount: 2
Fore
SplineSet
90 441 m 1,0,-1
 215 441 l 1,1,-1
 215 138 l 1,2,-1
 368 138 l 1,3,-1
 368 57 l 1,4,-1
 205 57 l 1,5,-1
 90 127 l 1,6,-1
 90 441 l 1,0,-1
215 -46 m 1,7,-1
 215 -91 l 1,8,-1
 368 -91 l 1,9,-1
 368 -196 l 1,10,-1
 205 -196 l 1,11,-1
 90 -127 l 1,12,-1
 90 -46 l 1,13,-1
 215 -46 l 1,7,-1
691 441 m 1,14,-1
 691 -127 l 1,15,-1
 563 -196 l 1,16,-1
 416 -196 l 1,17,-1
 416 -91 l 1,18,-1
 563 -91 l 1,19,-1
 563 57 l 1,20,-1
 413 57 l 1,21,-1
 413 138 l 1,22,-1
 563 138 l 1,23,-1
 563 441 l 1,24,-1
 691 441 l 1,14,-1
EndSplineSet
EndChar

StartChar: z
Encoding: 122 122 60
Width: 661
Flags: W
LayerCount: 2
Fore
SplineSet
631 441 m 1,0,-1
 353 175 l 1,1,-1
 353 326 l 1,2,-1
 378 349 l 1,3,-1
 353 349 l 1,4,-1
 353 441 l 1,5,-1
 631 441 l 1,0,-1
309 0 m 1,6,-1
 30 0 l 1,7,-1
 309 278 l 1,8,-1
 309 127 l 1,9,-1
 283 102 l 1,10,-1
 309 102 l 1,11,-1
 309 0 l 1,6,-1
309 441 m 1,12,-1
 309 349 l 1,13,-1
 30 349 l 1,14,-1
 30 441 l 1,15,-1
 309 441 l 1,12,-1
631 106 m 1,16,-1
 631 0 l 1,17,-1
 353 0 l 1,18,-1
 353 106 l 1,19,-1
 631 106 l 1,16,-1
EndSplineSet
EndChar

StartChar: one
Encoding: 49 49 64
Width: 421
Flags: W
LayerCount: 2
Fore
SplineSet
341 577 m 1,0,-1
 341 0 l 1,1,-1
 227 1 l 1,2,-1
 227 440 l 1,3,-1
 20 354 l 1,4,-1
 20 484 l 1,5,-1
 227 577 l 1,6,-1
 227 577 l 1,7,-1
 341 577 l 1,8,-1
 341 577 l 1,0,-1
EndSplineSet
EndChar

StartChar: two
Encoding: 50 50 65
Width: 871
Flags: W
LayerCount: 2
Fore
SplineSet
90 276 m 1,0,-1
 204 345 l 1,1,-1
 411 345 l 1,2,-1
 411 232 l 1,3,-1
 212 232 l 1,4,-1
 212 118 l 1,5,-1
 407 118 l 1,6,-1
 407 0 l 1,7,-1
 90 0 l 1,8,-1
 90 276 l 1,0,-1
90 394 m 1,9,-1
 90 508 l 1,10,-1
 204 577 l 1,11,-1
 411 577 l 1,12,-1
 411 463 l 1,13,-1
 216 463 l 1,14,-1
 216 394 l 1,15,-1
 90 394 l 1,9,-1
781 0 m 1,16,-1
 460 0 l 1,17,-1
 460 118 l 1,18,-1
 781 118 l 1,19,-1
 781 0 l 1,16,-1
651 232 m 1,20,-1
 456 232 l 1,21,-1
 456 345 l 1,22,-1
 651 345 l 1,23,-1
 651 463 l 1,24,-1
 456 463 l 1,25,-1
 456 577 l 1,26,-1
 663 577 l 1,27,-1
 781 508 l 1,28,-1
 781 301 l 1,29,-1
 651 232 l 1,20,-1
EndSplineSet
EndChar

StartChar: three
Encoding: 51 51 66
Width: 855
Flags: W
LayerCount: 2
Fore
SplineSet
661 -1 m 1,0,-1
 454 -1 l 1,1,-1
 454 117 l 1,2,-1
 649 117 l 1,3,-1
 649 231 l 1,4,-1
 454 231 l 1,5,-1
 454 344 l 1,6,-1
 649 344 l 1,7,-1
 649 462 l 1,8,-1
 454 462 l 1,9,-1
 454 576 l 1,10,-1
 661 576 l 1,11,-1
 775 507 l 1,12,-1
 775 336 l 1,13,-1
 681 288 l 1,14,-1
 775 243 l 1,15,-1
 775 68 l 1,16,-1
 661 -1 l 1,0,-1
210 186 m 1,17,-1
 210 117 l 1,18,-1
 405 117 l 1,19,-1
 405 -1 l 1,20,-1
 198 -1 l 1,21,-1
 80 68 l 1,22,-1
 80 186 l 1,23,-1
 210 186 l 1,17,-1
84 393 m 1,24,-1
 84 507 l 1,25,-1
 198 576 l 1,26,-1
 405 576 l 1,27,-1
 405 462 l 1,28,-1
 210 462 l 1,29,-1
 210 393 l 1,30,-1
 84 393 l 1,24,-1
405 231 m 1,31,-1
 279 231 l 1,32,-1
 279 344 l 1,33,-1
 405 344 l 1,34,-1
 405 231 l 1,31,-1
EndSplineSet
EndChar

StartChar: four
Encoding: 52 52 67
Width: 791
Flags: W
LayerCount: 2
Fore
SplineSet
721 1 m 1,0,-1
 604 1 l 1,1,-1
 604 228 l 1,2,-1
 397 228 l 1,3,-1
 397 345 l 1,4,-1
 604 345 l 1,5,-1
 604 576 l 1,6,-1
 721 576 l 1,7,-1
 721 1 l 1,0,-1
227 345 m 1,8,-1
 348 345 l 1,9,-1
 348 228 l 1,10,-1
 20 228 l 1,11,-1
 227 572 l 1,12,-1
 364 572 l 1,13,-1
 227 345 l 1,8,-1
EndSplineSet
EndChar

StartChar: five
Encoding: 53 53 68
Width: 875
Flags: W
LayerCount: 2
Fore
SplineSet
90 577 m 1,0,-1
 413 577 l 1,1,-1
 413 463 l 1,2,-1
 217 463 l 1,3,-1
 217 348 l 1,4,-1
 413 348 l 1,5,-1
 413 230 l 1,6,-1
 90 230 l 1,7,-1
 90 577 l 1,0,-1
217 185 m 1,8,-1
 217 115 l 1,9,-1
 413 115 l 1,10,-1
 413 1 l 1,11,-1
 204 1 l 1,12,-1
 90 70 l 1,13,-1
 90 185 l 1,14,-1
 217 185 l 1,8,-1
785 463 m 1,15,-1
 462 463 l 1,16,-1
 462 577 l 1,17,-1
 785 577 l 1,18,-1
 785 463 l 1,15,-1
785 279 m 1,19,-1
 785 70 l 1,20,-1
 671 1 l 1,21,-1
 462 1 l 1,22,-1
 462 115 l 1,23,-1
 658 115 l 1,24,-1
 658 230 l 1,25,-1
 462 230 l 1,26,-1
 462 348 l 1,27,-1
 658 348 l 1,28,-1
 785 279 l 1,19,-1
EndSplineSet
EndChar

StartChar: six
Encoding: 54 54 69
Width: 848
Flags: W
LayerCount: 2
Fore
SplineSet
768 70 m 1,0,-1
 655 1 l 1,1,-1
 448 1 l 1,2,-1
 448 118 l 1,3,-1
 647 118 l 1,4,-1
 647 231 l 1,5,-1
 448 231 l 1,6,-1
 448 345 l 1,7,-1
 655 345 l 1,8,-1
 768 276 l 1,9,-1
 768 70 l 1,0,-1
643 393 m 1,10,-1
 643 463 l 1,11,-1
 448 463 l 1,12,-1
 448 576 l 1,13,-1
 655 576 l 1,14,-1
 768 507 l 1,15,-1
 768 393 l 1,16,-1
 643 393 l 1,10,-1
80 507 m 1,17,-1
 193 576 l 1,18,-1
 400 576 l 1,19,-1
 400 463 l 1,20,-1
 205 463 l 1,21,-1
 205 345 l 1,22,-1
 400 345 l 1,23,-1
 400 231 l 1,24,-1
 205 231 l 1,25,-1
 205 118 l 1,26,-1
 400 118 l 1,27,-1
 400 1 l 1,28,-1
 205 1 l 1,29,-1
 80 70 l 1,30,-1
 80 507 l 1,17,-1
EndSplineSet
EndChar

StartChar: seven
Encoding: 55 55 70
Width: 756
Flags: W
LayerCount: 2
Fore
SplineSet
726 576 m 1,0,-1
 406 1 l 1,1,-1
 244 1 l 1,2,-1
 506 462 l 1,3,-1
 394 462 l 1,4,-1
 394 576 l 1,5,-1
 726 576 l 1,0,-1
346 576 m 1,6,-1
 346 462 l 1,7,-1
 30 462 l 1,8,-1
 30 576 l 1,9,-1
 346 576 l 1,6,-1
EndSplineSet
EndChar

StartChar: eight
Encoding: 56 56 71
Width: 854
Flags: W
LayerCount: 2
Fore
SplineSet
660 1 m 1,0,-1
 452 1 l 1,1,-1
 452 115 l 1,2,-1
 647 115 l 1,3,-1
 647 230 l 1,4,-1
 452 230 l 1,5,-1
 452 348 l 1,6,-1
 647 348 l 1,7,-1
 647 462 l 1,8,-1
 452 462 l 1,9,-1
 452 577 l 1,10,-1
 660 577 l 1,11,-1
 774 508 l 1,12,-1
 774 336 l 1,13,-1
 680 287 l 1,14,-1
 774 242 l 1,15,-1
 774 70 l 1,16,-1
 660 1 l 1,0,-1
80 70 m 1,17,-1
 80 242 l 1,18,-1
 174 287 l 1,19,-1
 80 336 l 1,20,-1
 80 508 l 1,21,-1
 194 577 l 1,22,-1
 402 577 l 1,23,-1
 402 462 l 1,24,-1
 207 462 l 1,25,-1
 207 348 l 1,26,-1
 402 348 l 1,27,-1
 402 230 l 1,28,-1
 207 230 l 1,29,-1
 207 115 l 1,30,-1
 402 115 l 1,31,-1
 402 1 l 1,32,-1
 194 1 l 1,33,-1
 80 70 l 1,17,-1
EndSplineSet
EndChar

StartChar: nine
Encoding: 57 57 72
Width: 846
Flags: W
LayerCount: 2
Fore
SplineSet
80 505 m 1,0,-1
 193 574 l 1,1,-1
 399 574 l 1,2,-1
 399 461 l 1,3,-1
 205 461 l 1,4,-1
 205 344 l 1,5,-1
 399 344 l 1,6,-1
 399 231 l 1,7,-1
 193 231 l 1,8,-1
 80 300 l 1,9,-1
 80 505 l 1,0,-1
205 187 m 1,10,-1
 205 118 l 1,11,-1
 399 118 l 1,12,-1
 399 1 l 1,13,-1
 193 1 l 1,14,-1
 80 70 l 1,15,-1
 80 187 l 1,16,-1
 205 187 l 1,10,-1
766 70 m 1,17,-1
 653 1 l 1,18,-1
 447 1 l 1,19,-1
 447 118 l 1,20,-1
 641 118 l 1,21,-1
 641 231 l 1,22,-1
 447 231 l 1,23,-1
 447 344 l 1,24,-1
 641 344 l 1,25,-1
 641 461 l 1,26,-1
 447 461 l 1,27,-1
 447 574 l 1,28,-1
 641 574 l 1,29,-1
 766 505 l 1,30,-1
 766 70 l 1,17,-1
EndSplineSet
EndChar

StartChar: zero
Encoding: 48 48 73
Width: 853
Flags: W
LayerCount: 2
Fore
SplineSet
773 506 m 1,0,-1
 773 69 l 1,1,-1
 659 0 l 1,2,-1
 447 0 l 1,3,-1
 447 114 l 1,4,-1
 647 114 l 1,5,-1
 647 428 l 1,6,-1
 447 216 l 1,7,-1
 447 391 l 1,8,-1
 508 461 l 1,9,-1
 451 461 l 1,10,-1
 451 575 l 1,11,-1
 647 575 l 1,12,-1
 773 506 l 1,0,-1
206 147 m 1,13,-1
 402 355 l 1,14,-1
 402 183 l 1,15,-1
 345 114 l 1,16,-1
 402 114 l 1,17,-1
 402 0 l 1,18,-1
 402 0 l 1,19,-1
 402 0 l 1,20,-1
 263 0 l 1,21,-1
 263 0 l 1,22,-1
 194 0 l 1,23,-1
 80 69 l 1,24,-1
 80 506 l 1,25,-1
 206 575 l 1,26,-1
 206 575 l 1,27,-1
 402 575 l 1,28,-1
 402 461 l 1,29,-1
 206 461 l 1,30,-1
 206 147 l 1,13,-1
EndSplineSet
EndChar

StartChar: dotaccent
Encoding: 729 729 74
Width: 244
Flags: W
LayerCount: 2
Fore
SplineSet
80 712 m 1,0,-1
 164 712 l 1,1,-1
 164 632 l 1,2,-1
 80 632 l 1,3,-1
 80 712 l 1,0,-1
EndSplineSet
EndChar

StartChar: fi
Encoding: 64257 64257 75
Width: 726
Flags: W
LayerCount: 2
Fore
SplineSet
350 344 m 1,0,-1
 436 344 l 1,1,-1
 436 264 l 1,2,-1
 350 264 l 1,3,-1
 350 344 l 1,0,-1
306 0 m 1,4,-1
 181 0 l 1,5,-1
 181 264 l 1,6,-1
 30 264 l 1,7,-1
 30 344 l 1,8,-1
 181 344 l 1,9,-1
 181 507 l 1,10,-1
 306 576 l 1,11,-1
 306 0 l 1,4,-1
350 483 m 1,12,-1
 350 576 l 1,13,-1
 513 576 l 1,14,-1
 626 576 l 1,15,-1
 626 480 l 1,16,-1
 350 483 l 1,12,-1
625 440 m 1,17,-1
 625 -1 l 1,18,-1
 499 -1 l 1,19,-1
 499 440 l 1,20,-1
 625 440 l 1,17,-1
EndSplineSet
EndChar

StartChar: fl
Encoding: 64258 64258 76
Width: 726
Flags: W
LayerCount: 2
Fore
SplineSet
350 344 m 1,0,-1
 436 344 l 1,1,-1
 436 264 l 1,2,-1
 350 264 l 1,3,-1
 350 344 l 1,0,-1
306 0 m 1,4,-1
 181 0 l 1,5,-1
 181 264 l 1,6,-1
 30 264 l 1,7,-1
 30 344 l 1,8,-1
 181 344 l 1,9,-1
 181 507 l 1,10,-1
 306 576 l 1,11,-1
 306 0 l 1,4,-1
501 -1 m 1,12,-1
 501 483 l 1,13,-1
 350 483 l 1,14,-1
 350 576 l 1,15,-1
 513 576 l 1,16,-1
 626 576 l 1,17,-1
 626 -1 l 1,18,-1
 501 -1 l 1,12,-1
EndSplineSet
EndChar

StartChar: colon
Encoding: 58 58 77
Width: 273
Flags: W
LayerCount: 2
Fore
SplineSet
80 436 m 1,0,-1
 193 436 l 1,1,-1
 193 298 l 1,2,-1
 80 298 l 1,3,-1
 80 436 l 1,0,-1
80 139 m 1,4,-1
 193 139 l 1,5,-1
 193 1 l 1,6,-1
 80 1 l 1,7,-1
 80 139 l 1,4,-1
EndSplineSet
EndChar

StartChar: semicolon
Encoding: 59 59 78
Width: 274
Flags: W
LayerCount: 2
Fore
SplineSet
80 138 m 1,0,-1
 194 138 l 1,1,-1
 194 0 l 1,2,-1
 80 -69 l 1,3,-1
 80 138 l 1,0,-1
80 436 m 1,4,-1
 193 436 l 1,5,-1
 193 298 l 1,6,-1
 80 298 l 1,7,-1
 80 436 l 1,4,-1
EndSplineSet
EndChar

StartChar: quotedblbase
Encoding: 8222 8222 79
Width: 365
Flags: W
LayerCount: 2
Fore
SplineSet
201 139 m 1,0,-1
 285 139 l 1,1,-1
 285 1 l 1,2,-1
 201 -48 l 1,3,-1
 201 139 l 1,0,-1
80 139 m 1,4,-1
 164 139 l 1,5,-1
 164 1 l 1,6,-1
 80 -48 l 1,7,-1
 80 139 l 1,4,-1
EndSplineSet
EndChar

StartChar: quoteright
Encoding: 8217 8217 80
Width: 144
Flags: W
LayerCount: 2
Fore
SplineSet
30 711 m 1,0,-1
 114 711 l 1,1,-1
 114 574 l 1,2,-1
 30 525 l 1,3,-1
 30 711 l 1,0,-1
EndSplineSet
EndChar

StartChar: quotedblright
Encoding: 8221 8221 81
Width: 365
Flags: W
LayerCount: 2
Fore
SplineSet
201 712 m 1,0,-1
 285 712 l 1,1,-1
 285 574 l 1,2,-1
 201 525 l 1,3,-1
 201 712 l 1,0,-1
80 712 m 1,4,-1
 164 712 l 1,5,-1
 164 574 l 1,6,-1
 80 525 l 1,7,-1
 80 712 l 1,4,-1
EndSplineSet
EndChar

StartChar: quotedblleft
Encoding: 8220 8220 82
Width: 365
Flags: W
LayerCount: 2
Fore
SplineSet
164 527 m 1,0,-1
 80 527 l 1,1,-1
 80 665 l 1,2,-1
 164 714 l 1,3,-1
 164 527 l 1,0,-1
285 527 m 1,4,-1
 201 527 l 1,5,-1
 201 665 l 1,6,-1
 285 714 l 1,7,-1
 285 527 l 1,4,-1
EndSplineSet
EndChar

StartChar: quoteleft
Encoding: 8216 8216 83
Width: 250
Flags: W
LayerCount: 2
Fore
SplineSet
151 525 m 1,0,-1
 67 525 l 1,1,-1
 67 663 l 1,2,-1
 151 712 l 1,3,-1
 151 525 l 1,0,-1
EndSplineSet
EndChar

StartChar: slash
Encoding: 47 47 84
Width: 416
Flags: W
LayerCount: 2
Fore
SplineSet
416 648 m 1,0,-1
 55 1 l 1,1,-1
 0 1 l 1,2,-1
 355 647 l 1,3,-1
 416 648 l 1,0,-1
EndSplineSet
EndChar

StartChar: comma
Encoding: 65537 -1 85
Width: 274
Flags: W
LayerCount: 2
Fore
SplineSet
80 138 m 1,0,-1
 194 138 l 1,1,-1
 194 0 l 1,2,-1
 80 -69 l 1,3,-1
 80 138 l 1,0,-1
EndSplineSet
EndChar

StartChar: at
Encoding: 64 64 86
Width: 862
Flags: W
LayerCount: 2
Fore
SplineSet
80 508 m 1,0,-1
 195 578 l 1,1,-1
 402 578 l 1,2,-1
 402 497 l 1,3,-1
 170 497 l 1,4,-1
 170 103 l 1,5,-1
 402 103 l 1,6,-1
 402 1 l 1,7,-1
 195 1 l 1,8,-1
 80 71 l 1,9,-1
 80 508 l 1,0,-1
691 103 m 1,10,-1
 449 103 l 1,11,-1
 449 1 l 1,12,-1
 656 1 l 1,13,-1
 772 1 l 1,14,-1
 772 103 l 1,15,-1
 691 103 l 1,10,-1
216 358 m 1,16,-1
 334 428 l 1,17,-1
 402 428 l 1,18,-1
 402 347 l 1,19,-1
 320 347 l 1,20,-1
 320 255 l 1,21,-1
 402 255 l 1,22,-1
 402 174 l 1,23,-1
 334 174 l 1,24,-1
 216 243 l 1,25,-1
 216 358 l 1,16,-1
772 508 m 1,26,-1
 656 578 l 1,27,-1
 449 578 l 1,28,-1
 449 497 l 1,29,-1
 679 497 l 1,30,-1
 679 255 l 1,31,-1
 608 255 l 1,32,-1
 608 428 l 1,33,-1
 518 428 l 1,34,-1
 521 428 l 1,35,-1
 449 428 l 1,36,-1
 449 347 l 1,37,-1
 504 347 l 1,38,-1
 504 255 l 1,39,-1
 449 255 l 1,40,-1
 449 174 l 1,41,-1
 772 174 l 1,42,-1
 772 508 l 1,26,-1
EndSplineSet
EndChar

StartChar: ampersand
Encoding: 38 38 87
Width: 798
Flags: W
LayerCount: 2
Fore
SplineSet
667 116 m 1,0,-1
 748 58 l 1,1,-1
 633 1 l 1,2,-1
 598 24 l 1,3,-1
 576 1 l 1,4,-1
 404 1 l 1,5,-1
 404 103 l 1,6,-1
 480 103 l 1,7,-1
 404 154 l 1,8,-1
 404 355 l 1,9,-1
 496 391 l 1,10,-1
 496 439 l 1,11,-1
 404 439 l 1,12,-1
 404 572 l 1,13,-1
 461 572 l 1,14,-1
 611 518 l 1,15,-1
 611 321 l 1,16,-1
 457 260 l 1,17,-1
 576 173 l 1,18,-1
 633 253 l 1,19,-1
 748 219 l 1,20,-1
 667 116 l 1,0,-1
356 1 m 1,21,-1
 175 1 l 1,22,-1
 60 59 l 1,23,-1
 60 219 l 1,24,-1
 215 280 l 1,25,-1
 152 321 l 1,26,-1
 152 518 l 1,27,-1
 298 572 l 1,28,-1
 356 572 l 1,29,-1
 356 439 l 1,30,-1
 268 439 l 1,31,-1
 268 391 l 1,32,-1
 356 321 l 1,33,-1
 356 186 l 1,34,-1
 325 207 l 1,35,-1
 184 150 l 1,36,-1
 184 103 l 1,37,-1
 356 103 l 1,38,-1
 356 1 l 1,21,-1
EndSplineSet
EndChar

StartChar: backslash
Encoding: 92 92 88
Width: 482
Flags: W
LayerCount: 2
Fore
SplineSet
91 648 m 1,0,-1
 452 1 l 1,1,-1
 397 1 l 1,2,-1
 30 647 l 1,3,-1
 91 648 l 1,0,-1
EndSplineSet
EndChar

StartChar: hyphen
Encoding: 45 45 89
Width: 396
Flags: W
LayerCount: 2
Fore
SplineSet
316 296 m 1,0,-1
 316 247 l 1,1,-1
 80 247 l 1,2,-1
 80 296 l 1,3,-1
 316 296 l 1,4,-1
 316 296 l 1,0,-1
EndSplineSet
EndChar

StartChar: plus
Encoding: 43 43 90
Width: 395
Flags: W
LayerCount: 2
Fore
SplineSet
365 295 m 1,0,-1
 365 246 l 1,1,-1
 221 246 l 1,2,-1
 221 103 l 1,3,-1
 174 103 l 1,4,-1
 174 246 l 1,5,-1
 30 246 l 1,6,-1
 30 295 l 1,7,-1
 174 295 l 1,8,-1
 174 438 l 1,9,-1
 221 438 l 1,10,-1
 221 295 l 1,11,-1
 365 295 l 1,12,-1
 365 295 l 1,0,-1
EndSplineSet
EndChar

StartChar: bullet
Encoding: 8226 8226 91
Width: 355
Flags: W
LayerCount: 2
Fore
SplineSet
178 174 m 1,0,-1
 80 208 l 1,1,-1
 80 323 l 1,2,-1
 178 357 l 1,3,-1
 275 323 l 1,4,-1
 275 208 l 1,5,-1
 178 174 l 1,6,-1
 178 174 l 1,0,-1
EndSplineSet
EndChar

StartChar: ellipsis
Encoding: 8230 8230 92
Width: 549
Flags: W
LayerCount: 2
Fore
SplineSet
222 121 m 1,0,-1
 325 121 l 1,1,-1
 325 1 l 1,2,-1
 222 0 l 1,3,-1
 222 121 l 1,0,-1
50 121 m 1,4,-1
 153 121 l 1,5,-1
 153 1 l 1,6,-1
 50 0 l 1,7,-1
 50 121 l 1,4,-1
396 121 m 1,8,-1
 499 121 l 1,9,-1
 499 1 l 1,10,-1
 396 0 l 1,11,-1
 396 121 l 1,8,-1
EndSplineSet
EndChar

StartChar: section
Encoding: 167 167 93
Width: 666
Flags: W
LayerCount: 2
Fore
SplineSet
208 -45 m 1,0,-1
 208 -91 l 1,1,-1
 313 -91 l 1,2,-1
 313 -194 l 1,3,-1
 199 -194 l 1,4,-1
 84 -125 l 1,5,-1
 84 -45 l 1,6,-1
 208 -45 l 1,0,-1
462 471 m 1,7,-1
 462 517 l 1,8,-1
 357 517 l 1,9,-1
 357 620 l 1,10,-1
 472 620 l 1,11,-1
 586 551 l 1,12,-1
 586 471 l 1,13,-1
 462 471 l 1,7,-1
586 -125 m 1,14,-1
 586 1 l 1,15,-1
 494 47 l 1,16,-1
 586 93 l 1,17,-1
 586 368 l 1,18,-1
 472 437 l 1,19,-1
 357 437 l 1,20,-1
 357 345 l 1,21,-1
 460 345 l 1,22,-1
 460 104 l 1,23,-1
 357 104 l 1,24,-1
 357 1 l 1,25,-1
 460 1 l 1,26,-1
 460 -91 l 1,27,-1
 359 -91 l 1,28,-1
 359 -194 l 1,29,-1
 472 -194 l 1,30,-1
 586 -125 l 1,14,-1
80 58 m 1,31,-1
 80 334 l 1,32,-1
 171 379 l 1,33,-1
 80 425 l 1,34,-1
 80 551 l 1,35,-1
 194 620 l 1,36,-1
 311 620 l 1,37,-1
 311 520 l 1,38,-1
 206 520 l 1,39,-1
 206 437 l 1,40,-1
 311 437 l 1,41,-1
 311 345 l 1,42,-1
 206 345 l 1,43,-1
 206 104 l 1,44,-1
 309 104 l 1,45,-1
 309 1 l 1,46,-1
 194 1 l 1,47,-1
 80 58 l 1,31,-1
EndSplineSet
EndChar

StartChar: quotedbl
Encoding: 34 34 94
Width: 265
Flags: W
LayerCount: 2
Fore
SplineSet
151 711 m 1,0,-1
 235 711 l 1,1,-1
 235 554 l 1,2,-1
 151 553 l 1,3,-1
 151 711 l 1,0,-1
30 711 m 1,4,-1
 114 711 l 1,5,-1
 114 554 l 1,6,-1
 30 552 l 1,7,-1
 30 711 l 1,4,-1
EndSplineSet
EndChar

StartChar: quotesingle
Encoding: 39 39 95
Width: 244
Flags: W
LayerCount: 2
Fore
SplineSet
80 712 m 1,0,-1
 164 712 l 1,1,-1
 164 554 l 1,2,-1
 80 552 l 1,3,-1
 80 712 l 1,0,-1
EndSplineSet
EndChar

StartChar: parenleft
Encoding: 40 40 96
Width: 332
Flags: W
LayerCount: 2
Fore
SplineSet
90 626 m 1,0,-1
 232 711 l 1,1,-1
 332 711 l 1,2,-1
 147 597 l 1,3,-1
 147 -19 l 1,4,-1
 332 -132 l 1,5,-1
 232 -132 l 1,6,-1
 90 -47 l 1,7,-1
 90 626 l 1,0,-1
EndSplineSet
EndChar

StartChar: minus
Encoding: 8722 8722 97
Width: 396
Flags: W
LayerCount: 2
Fore
SplineSet
366 306 m 1,0,-1
 366 247 l 1,1,-1
 30 247 l 1,2,-1
 30 306 l 1,3,-1
 366 306 l 1,0,-1
EndSplineSet
EndChar

StartChar: endash
Encoding: 8211 8211 98
Width: 759
Flags: W
LayerCount: 2
Fore
SplineSet
679 306 m 1,0,-1
 679 247 l 1,1,-1
 80 247 l 1,2,-1
 80 306 l 1,3,-1
 679 306 l 1,0,-1
EndSplineSet
EndChar

StartChar: emdash
Encoding: 8212 8212 99
Width: 893
Flags: W
LayerCount: 2
Fore
SplineSet
813 306 m 1,0,-1
 813 247 l 1,1,-1
 80 247 l 1,2,-1
 80 306 l 1,3,-1
 813 306 l 1,0,-1
EndSplineSet
EndChar

StartChar: parenright
Encoding: 41 41 100
Width: 332
Flags: W
LayerCount: 2
Fore
SplineSet
242 -48 m 1,0,-1
 99 -134 l 1,1,-1
 0 -134 l 1,2,-1
 185 -20 l 1,3,-1
 185 597 l 1,4,-1
 0 711 l 1,5,-1
 99 711 l 1,6,-1
 242 625 l 1,7,-1
 242 -48 l 1,0,-1
EndSplineSet
EndChar

StartChar: underscore
Encoding: 95 95 101
Width: 399
Flags: W
LayerCount: 2
Fore
SplineSet
319 59 m 1,0,-1
 319 0 l 1,1,-1
 80 0 l 1,2,-1
 80 59 l 1,3,-1
 319 59 l 1,0,-1
EndSplineSet
EndChar

StartChar: bracketright
Encoding: 93 93 102
Width: 304
Flags: W
LayerCount: 2
Fore
SplineSet
204 -121 m 1,0,-1
 30 -121 l 1,1,-1
 30 -74 l 1,2,-1
 146 -74 l 1,3,-1
 146 667 l 1,4,-1
 30 667 l 1,5,-1
 30 711 l 1,6,-1
 204 711 l 1,7,-1
 204 -121 l 1,0,-1
EndSplineSet
EndChar

StartChar: bracketleft
Encoding: 91 91 103
Width: 303
Flags: W
LayerCount: 2
Fore
SplineSet
100 -121 m 1,0,-1
 100 711 l 1,1,-1
 273 711 l 1,2,-1
 273 666 l 1,3,-1
 156 666 l 1,4,-1
 156 -72 l 1,5,-1
 273 -72 l 1,6,-1
 273 -121 l 1,7,-1
 100 -121 l 1,8,-1
 100 -121 l 1,0,-1
EndSplineSet
EndChar

StartChar: fraction
Encoding: 8260 8260 104
Width: 490
Flags: W
LayerCount: 2
Fore
SplineSet
460 648 m 1,0,-1
 99 1 l 1,1,-1
 30 1 l 1,2,-1
 385 647 l 1,3,-1
 460 648 l 1,0,-1
EndSplineSet
EndChar

StartChar: bar
Encoding: 124 124 105
Width: 258
Flags: W
LayerCount: 2
Fore
SplineSet
158 -121 m 1,0,-1
 100 -121 l 1,1,-1
 100 712 l 1,2,-1
 158 712 l 1,3,-1
 158 -121 l 1,0,-1
EndSplineSet
EndChar

StartChar: brokenbar
Encoding: 166 166 106
Width: 258
Flags: W
LayerCount: 2
Fore
SplineSet
158 344 m 1,0,-1
 100 344 l 1,1,-1
 100 712 l 1,2,-1
 158 712 l 1,3,-1
 158 344 l 1,0,-1
158 -121 m 1,4,-1
 100 -121 l 1,5,-1
 100 230 l 1,6,-1
 158 230 l 1,7,-1
 158 -121 l 1,4,-1
EndSplineSet
EndChar

StartChar: equal
Encoding: 61 61 107
Width: 493
Flags: W
LayerCount: 2
Fore
SplineSet
413 311 m 1,0,-1
 413 264 l 1,1,-1
 80 264 l 1,2,-1
 80 311 l 1,3,-1
 413 311 l 1,4,-1
 413 311 l 1,0,-1
413 184 m 1,5,-1
 413 136 l 1,6,-1
 80 136 l 1,7,-1
 80 184 l 1,8,-1
 413 184 l 1,9,-1
 413 184 l 1,5,-1
EndSplineSet
EndChar

StartChar: asterisk
Encoding: 42 42 108
Width: 347
Flags: W
LayerCount: 2
Fore
SplineSet
317 547 m 1,0,-1
 215 547 l 1,1,-1
 266 459 l 1,2,-1
 225 435 l 1,3,-1
 174 523 l 1,4,-1
 123 435 l 1,5,-1
 81 459 l 1,6,-1
 132 547 l 1,7,-1
 30 547 l 1,8,-1
 30 595 l 1,9,-1
 132 595 l 1,10,-1
 81 683 l 1,11,-1
 123 707 l 1,12,-1
 174 619 l 1,13,-1
 225 707 l 1,14,-1
 266 683 l 1,15,-1
 215 595 l 1,16,-1
 317 595 l 1,17,-1
 317 547 l 1,0,-1
EndSplineSet
EndChar

StartChar: degree
Encoding: 176 176 109
Width: 411
Flags: W
LayerCount: 2
Fore
SplineSet
229 446 m 1,0,-1
 229 501 l 1,1,-1
 286 526 l 1,2,-1
 286 618 l 1,3,-1
 229 643 l 1,4,-1
 229 696 l 1,5,-1
 331 652 l 1,6,-1
 331 492 l 1,7,-1
 229 446 l 1,0,-1
183 446 m 1,8,-1
 80 492 l 1,9,-1
 80 652 l 1,10,-1
 183 696 l 1,11,-1
 183 643 l 1,12,-1
 125 618 l 1,13,-1
 125 526 l 1,14,-1
 183 501 l 1,15,-1
 183 446 l 1,8,-1
EndSplineSet
EndChar

StartChar: percent
Encoding: 37 37 110
Width: 634
Flags: W
LayerCount: 2
Fore
SplineSet
532 664 m 1,0,-1
 162 1 l 1,1,-1
 92 1 l 1,2,-1
 455 663 l 1,3,-1
 532 664 l 1,0,-1
213 513 m 1,4,-1
 271 539 l 1,5,-1
 271 633 l 1,6,-1
 213 658 l 1,7,-1
 213 713 l 1,8,-1
 317 668 l 1,9,-1
 317 504 l 1,10,-1
 213 457 l 1,11,-1
 213 513 l 1,4,-1
60 504 m 1,12,-1
 60 668 l 1,13,-1
 165 713 l 1,14,-1
 165 658 l 1,15,-1
 106 633 l 1,16,-1
 106 539 l 1,17,-1
 165 513 l 1,18,-1
 165 457 l 1,19,-1
 60 504 l 1,12,-1
470 12 m 1,20,-1
 528 38 l 1,21,-1
 528 132 l 1,22,-1
 470 158 l 1,23,-1
 470 212 l 1,24,-1
 574 167 l 1,25,-1
 574 3 l 1,26,-1
 470 -44 l 1,27,-1
 470 12 l 1,20,-1
317 3 m 1,28,-1
 317 167 l 1,29,-1
 422 212 l 1,30,-1
 422 158 l 1,31,-1
 363 132 l 1,32,-1
 363 38 l 1,33,-1
 422 12 l 1,34,-1
 422 -44 l 1,35,-1
 317 3 l 1,28,-1
EndSplineSet
EndChar

StartChar: divide
Encoding: 247 247 111
Width: 492
Flags: W
LayerCount: 2
Fore
SplineSet
412 264 m 1,0,-1
 412 206 l 1,1,-1
 80 206 l 1,2,-1
 80 264 l 1,3,-1
 412 264 l 1,0,-1
248 66 m 1,4,-1
 212 81 l 1,5,-1
 212 123 l 1,6,-1
 248 138 l 1,7,-1
 280 123 l 1,8,-1
 280 81 l 1,9,-1
 248 66 l 1,4,-1
248 315 m 1,10,-1
 212 331 l 1,11,-1
 212 373 l 1,12,-1
 248 388 l 1,13,-1
 280 373 l 1,14,-1
 280 331 l 1,15,-1
 248 315 l 1,10,-1
EndSplineSet
EndChar

StartChar: less
Encoding: 60 60 112
Width: 442
Flags: W
LayerCount: 2
Fore
SplineSet
362 334 m 1,0,-1
 103 228 l 1,1,-1
 362 114 l 1,2,-1
 362 56 l 1,3,-1
 30 206 l 1,4,-1
 30 252 l 1,5,-1
 30 252 l 1,6,-1
 30 252 l 1,7,-1
 362 391 l 1,8,-1
 362 334 l 1,0,-1
EndSplineSet
EndChar

StartChar: greater
Encoding: 62 62 113
Width: 442
Flags: W
LayerCount: 2
Fore
SplineSet
412 206 m 1,0,-1
 80 56 l 1,1,-1
 80 114 l 1,2,-1
 339 228 l 1,3,-1
 80 334 l 1,4,-1
 80 391 l 1,5,-1
 412 252 l 1,6,-1
 412 206 l 1,0,-1
EndSplineSet
EndChar

StartChar: lessequal
Encoding: 8804 8804 114
Width: 491
Flags: W
LayerCount: 2
Fore
SplineSet
411 116 m 1,0,-1
 411 58 l 1,1,-1
 80 58 l 1,2,-1
 80 116 l 1,3,-1
 411 116 l 1,0,-1
411 182 m 1,4,-1
 411 124 l 1,5,-1
 80 241 l 1,6,-1
 80 286 l 1,7,-1
 80 286 l 1,8,-1
 80 286 l 1,9,-1
 411 391 l 1,10,-1
 411 334 l 1,11,-1
 169 262 l 1,12,-1
 411 182 l 1,4,-1
EndSplineSet
EndChar

StartChar: greaterequal
Encoding: 8805 8805 115
Width: 491
Flags: W
LayerCount: 2
Fore
SplineSet
411 116 m 1,0,-1
 411 58 l 1,1,-1
 80 58 l 1,2,-1
 80 116 l 1,3,-1
 411 116 l 1,0,-1
411 241 m 1,4,-1
 80 124 l 1,5,-1
 80 182 l 1,6,-1
 322 262 l 1,7,-1
 80 334 l 1,8,-1
 80 391 l 1,9,-1
 411 286 l 1,10,-1
 411 241 l 1,4,-1
EndSplineSet
EndChar

StartChar: copyright
Encoding: 169 169 116
Width: 701
Flags: W
LayerCount: 2
Fore
SplineSet
375 141 m 1,0,-1
 576 231 l 1,1,-1
 579 482 l 1,2,-1
 375 571 l 1,3,-1
 375 624 l 1,4,-1
 621 518 l 1,5,-1
 621 197 l 1,6,-1
 375 86 l 1,7,-1
 375 141 l 1,0,-1
80 199 m 1,8,-1
 80 513 l 1,9,-1
 329 624 l 1,10,-1
 329 571 l 1,11,-1
 124 482 l 1,12,-1
 124 229 l 1,13,-1
 329 141 l 1,14,-1
 329 86 l 1,15,-1
 80 199 l 1,8,-1
233 433 m 1,16,-1
 273 457 l 1,17,-1
 343 457 l 1,18,-1
 343 418 l 1,19,-1
 277 418 l 1,20,-1
 277 301 l 1,21,-1
 342 301 l 1,22,-1
 342 261 l 1,23,-1
 273 261 l 1,24,-1
 233 284 l 1,25,-1
 233 433 l 1,16,-1
469 324 m 1,26,-1
 469 284 l 1,27,-1
 429 261 l 1,28,-1
 360 261 l 1,29,-1
 360 301 l 1,30,-1
 425 301 l 1,31,-1
 425 324 l 1,32,-1
 469 324 l 1,26,-1
425 395 m 1,33,-1
 425 418 l 1,34,-1
 359 418 l 1,35,-1
 359 457 l 1,36,-1
 429 457 l 1,37,-1
 469 433 l 1,38,-1
 469 395 l 1,39,-1
 425 395 l 1,33,-1
EndSplineSet
EndChar

StartChar: registered
Encoding: 174 174 117
Width: 701
Flags: W
LayerCount: 2
Fore
SplineSet
124 230 m 1,0,-1
 327 143 l 1,1,-1
 327 88 l 1,2,-1
 80 201 l 1,3,-1
 80 512 l 1,4,-1
 327 623 l 1,5,-1
 327 571 l 1,6,-1
 124 482 l 1,7,-1
 124 230 l 1,0,-1
579 482 m 1,8,-1
 374 571 l 1,9,-1
 374 623 l 1,10,-1
 621 512 l 1,11,-1
 621 201 l 1,12,-1
 374 88 l 1,13,-1
 374 143 l 1,14,-1
 579 230 l 1,15,-1
 579 482 l 1,8,-1
235 456 m 1,16,-1
 342 456 l 1,17,-1
 342 416 l 1,18,-1
 277 416 l 1,19,-1
 277 378 l 1,20,-1
 342 378 l 1,21,-1
 342 339 l 1,22,-1
 277 339 l 1,23,-1
 277 262 l 1,24,-1
 235 262 l 1,25,-1
 235 456 l 1,26,-1
 235 456 l 1,16,-1
467 262 m 1,27,-1
 424 262 l 1,28,-1
 424 339 l 1,29,-1
 357 339 l 1,30,-1
 357 378 l 1,31,-1
 424 378 l 1,32,-1
 424 416 l 1,33,-1
 357 416 l 1,34,-1
 357 456 l 1,35,-1
 427 456 l 1,36,-1
 467 433 l 1,37,-1
 467 374 l 1,38,-1
 435 359 l 1,39,-1
 467 342 l 1,40,-1
 467 262 l 1,27,-1
EndSplineSet
EndChar

StartChar: trademark
Encoding: 8482 8482 118
Width: 701
Flags: W
LayerCount: 2
Fore
SplineSet
124 230 m 1,0,-1
 327 143 l 1,1,-1
 327 88 l 1,2,-1
 80 201 l 1,3,-1
 80 512 l 1,4,-1
 327 623 l 1,5,-1
 327 571 l 1,6,-1
 124 482 l 1,7,-1
 124 230 l 1,0,-1
177 455 m 1,8,-1
 332 455 l 1,9,-1
 332 418 l 1,10,-1
 275 418 l 1,11,-1
 275 261 l 1,12,-1
 228 261 l 1,13,-1
 228 418 l 1,14,-1
 177 418 l 1,15,-1
 177 455 l 1,8,-1
513 455 m 1,16,-1
 513 261 l 1,17,-1
 473 261 l 1,18,-1
 473 399 l 1,19,-1
 433 359 l 1,20,-1
 397 399 l 1,21,-1
 397 261 l 1,22,-1
 355 261 l 1,23,-1
 355 455 l 1,24,-1
 391 455 l 1,25,-1
 433 409 l 1,26,-1
 476 455 l 1,27,-1
 513 455 l 1,16,-1
579 482 m 1,28,-1
 374 571 l 1,29,-1
 374 623 l 1,30,-1
 621 512 l 1,31,-1
 621 201 l 1,32,-1
 374 88 l 1,33,-1
 374 143 l 1,34,-1
 579 230 l 1,35,-1
 579 482 l 1,28,-1
EndSplineSet
EndChar

StartChar: ordmasculine
Encoding: 186 186 119
Width: 354
Flags: W
LayerCount: 2
Fore
SplineSet
80 543 m 1,0,-1
 126 577 l 1,1,-1
 165 577 l 1,2,-1
 165 533 l 1,3,-1
 126 533 l 1,4,-1
 126 383 l 1,5,-1
 165 383 l 1,6,-1
 165 338 l 1,7,-1
 126 338 l 1,8,-1
 80 374 l 1,9,-1
 80 543 l 1,0,-1
274 539 m 1,10,-1
 229 577 l 1,11,-1
 187 577 l 1,12,-1
 187 532 l 1,13,-1
 229 532 l 1,14,-1
 229 383 l 1,15,-1
 187 383 l 1,16,-1
 187 338 l 1,17,-1
 229 338 l 1,18,-1
 274 374 l 1,19,-1
 274 539 l 1,10,-1
EndSplineSet
EndChar

StartChar: onesuperior
Encoding: 185 185 120
Width: 235
Flags: W
LayerCount: 2
Fore
SplineSet
155 338 m 1,0,-1
 109 338 l 1,1,-1
 109 532 l 1,2,-1
 30 487 l 1,3,-1
 30 532 l 1,4,-1
 107 577 l 1,5,-1
 107 577 l 1,6,-1
 155 577 l 1,7,-1
 155 338 l 1,0,-1
EndSplineSet
EndChar

StartChar: guillemotright
Encoding: 187 187 121
Width: 407
Flags: W
LayerCount: 2
Fore
SplineSet
367 208 m 1,0,-1
 187 60 l 1,1,-1
 187 118 l 1,2,-1
 323 231 l 1,3,-1
 187 334 l 1,4,-1
 187 391 l 1,5,-1
 367 254 l 1,6,-1
 367 208 l 1,0,-1
220 208 m 1,7,-1
 40 60 l 1,8,-1
 40 118 l 1,9,-1
 177 231 l 1,10,-1
 40 334 l 1,11,-1
 40 391 l 1,12,-1
 220 254 l 1,13,-1
 220 208 l 1,7,-1
EndSplineSet
EndChar

StartChar: dollar
Encoding: 36 36 122
Width: 828
Flags: W
LayerCount: 2
Fore
SplineSet
389 230 m 1,0,-1
 185 230 l 1,1,-1
 70 298 l 1,2,-1
 70 506 l 1,3,-1
 185 574 l 1,4,-1
 343 574 l 1,5,-1
 343 710 l 1,6,-1
 392 710 l 1,7,-1
 392 460 l 1,8,-1
 392 460 l 1,9,-1
 194 460 l 1,10,-1
 194 345 l 1,11,-1
 389 345 l 1,12,-1
 389 230 l 1,0,-1
438 345 m 1,13,-1
 645 345 l 1,14,-1
 758 276 l 1,15,-1
 758 69 l 1,16,-1
 645 1 l 1,17,-1
 485 1 l 1,18,-1
 485 -195 l 1,19,-1
 438 -195 l 1,20,-1
 438 115 l 1,21,-1
 439 115 l 1,22,-1
 439 115 l 1,23,-1
 633 115 l 1,24,-1
 633 230 l 1,25,-1
 438 230 l 1,26,-1
 438 345 l 1,13,-1
392 115 m 1,27,-1
 392 115 l 1,28,-1
 392 115 l 1,29,-1
 392 -195 l 1,30,-1
 344 -195 l 1,31,-1
 344 1 l 1,32,-1
 186 1 l 1,33,-1
 73 69 l 1,34,-1
 73 184 l 1,35,-1
 197 184 l 1,36,-1
 197 115 l 1,37,-1
 392 115 l 1,27,-1
633 460 m 1,38,-1
 438 460 l 1,39,-1
 438 460 l 1,40,-1
 438 710 l 1,41,-1
 485 710 l 1,42,-1
 485 574 l 1,43,-1
 645 574 l 1,44,-1
 758 506 l 1,45,-1
 758 391 l 1,46,-1
 633 391 l 1,47,-1
 633 460 l 1,38,-1
EndSplineSet
EndChar

StartChar: braceleft
Encoding: 123 123 123
Width: 383
Flags: W
LayerCount: 2
Fore
SplineSet
123 235 m 1,0,-1
 30 322 l 1,1,-1
 123 408 l 1,2,-1
 123 623 l 1,3,-1
 264 709 l 1,4,-1
 363 709 l 1,5,-1
 179 595 l 1,6,-1
 179 398 l 1,7,-1
 95 322 l 1,8,-1
 179 247 l 1,9,-1
 179 -19 l 1,10,-1
 363 -133 l 1,11,-1
 264 -133 l 1,12,-1
 123 -47 l 1,13,-1
 123 235 l 1,0,-1
EndSplineSet
EndChar

StartChar: braceright
Encoding: 125 125 124
Width: 382
Flags: W
LayerCount: 2
Fore
SplineSet
261 -47 m 1,0,-1
 118 -133 l 1,1,-1
 20 -133 l 1,2,-1
 203 -19 l 1,3,-1
 203 247 l 1,4,-1
 288 322 l 1,5,-1
 203 398 l 1,6,-1
 203 595 l 1,7,-1
 20 709 l 1,8,-1
 118 709 l 1,9,-1
 261 623 l 1,10,-1
 261 408 l 1,11,-1
 352 322 l 1,12,-1
 261 235 l 1,13,-1
 261 -47 l 1,0,-1
EndSplineSet
EndChar

StartChar: multiply
Encoding: 215 215 125
Width: 518
Flags: W
LayerCount: 2
Fore
SplineSet
438 353 m 1,0,-1
 313 218 l 1,1,-1
 438 93 l 1,2,-1
 385 39 l 1,3,-1
 259 164 l 1,4,-1
 134 39 l 1,5,-1
 80 93 l 1,6,-1
 206 218 l 1,7,-1
 80 343 l 1,8,-1
 134 397 l 1,9,-1
 259 272 l 1,10,-1
 385 397 l 1,11,-1
 438 353 l 1,0,-1
EndSplineSet
EndChar

StartChar: plusminus
Encoding: 177 177 126
Width: 492
Flags: W
LayerCount: 2
Fore
SplineSet
80 58 m 1,0,-1
 80 116 l 1,1,-1
 410 116 l 1,2,-1
 410 58 l 1,3,-1
 80 58 l 1,0,-1
275 296 m 1,4,-1
 412 296 l 1,5,-1
 412 238 l 1,6,-1
 275 238 l 1,7,-1
 275 136 l 1,8,-1
 217 136 l 1,9,-1
 217 238 l 1,10,-1
 80 238 l 1,11,-1
 80 296 l 1,12,-1
 217 296 l 1,13,-1
 217 390 l 1,14,-1
 275 390 l 1,15,-1
 275 296 l 1,4,-1
EndSplineSet
EndChar

StartChar: asciitilde
Encoding: 126 126 127
Width: 536
Flags: W
LayerCount: 2
Fore
SplineSet
456 273 m 1,0,-1
 376 227 l 1,1,-1
 308 227 l 1,2,-1
 217 284 l 1,3,-1
 171 284 l 1,4,-1
 80 227 l 1,5,-1
 80 283 l 1,6,-1
 160 331 l 1,7,-1
 228 331 l 1,8,-1
 319 275 l 1,9,-1
 365 275 l 1,10,-1
 456 328 l 1,11,-1
 456 273 l 1,0,-1
EndSplineSet
EndChar

StartChar: tilde
Encoding: 732 732 128
Width: 536
Flags: W
LayerCount: 2
Fore
SplineSet
456 616 m 1,0,-1
 456 561 l 1,1,-1
 376 515 l 1,2,-1
 308 515 l 1,3,-1
 217 572 l 1,4,-1
 171 572 l 1,5,-1
 80 515 l 1,6,-1
 80 571 l 1,7,-1
 160 619 l 1,8,-1
 228 619 l 1,9,-1
 319 563 l 1,10,-1
 365 563 l 1,11,-1
 456 616 l 1,12,-1
 456 616 l 1,0,-1
EndSplineSet
EndChar

StartChar: acute
Encoding: 180 180 129
Width: 770
Flags: W
LayerCount: 2
Fore
SplineSet
670 648 m 1,0,-1
 670 573 l 1,1,-1
 441 572 l 1,2,-1
 670 648 l 1,0,-1
EndSplineSet
EndChar

StartChar: grave
Encoding: 96 96 130
Width: 770
Flags: W
LayerCount: 2
Fore
SplineSet
329 586 m 1,0,-1
 100 587 l 1,1,-1
 100 662 l 1,2,-1
 329 586 l 1,0,-1
EndSplineSet
EndChar

StartChar: circumflex
Encoding: 710 710 131
Width: 468
Flags: W
LayerCount: 2
Fore
SplineSet
388 614 m 1,0,-1
 311 614 l 1,1,-1
 236 670 l 1,2,-1
 157 614 l 1,3,-1
 80 614 l 1,4,-1
 214 711 l 1,5,-1
 260 711 l 1,6,-1
 260 711 l 1,7,-1
 260 711 l 1,8,-1
 388 614 l 1,9,-1
 388 614 l 1,0,-1
EndSplineSet
EndChar

StartChar: asciicircum
Encoding: 94 94 132
Width: 438
Flags: W
LayerCount: 2
Fore
SplineSet
348 437 m 1,0,-1
 226 652 l 1,1,-1
 90 437 l 1,2,-1
 30 437 l 1,3,-1
 204 711 l 1,4,-1
 250 711 l 1,5,-1
 250 711 l 1,6,-1
 250 711 l 1,7,-1
 408 437 l 1,8,-1
 348 437 l 1,0,-1
EndSplineSet
EndChar

StartChar: guillemotleft
Encoding: 171 171 133
Width: 407
Flags: W
LayerCount: 2
Fore
SplineSet
40 254 m 1,0,-1
 220 391 l 1,1,-1
 220 334 l 1,2,-1
 84 231 l 1,3,-1
 220 118 l 1,4,-1
 220 60 l 1,5,-1
 40 208 l 1,6,-1
 40 254 l 1,0,-1
187 254 m 1,7,-1
 367 391 l 1,8,-1
 367 334 l 1,9,-1
 230 231 l 1,10,-1
 367 118 l 1,11,-1
 367 60 l 1,12,-1
 187 208 l 1,13,-1
 187 254 l 1,7,-1
EndSplineSet
EndChar

StartChar: periodcentered
Encoding: 183 183 134
Width: 272
Flags: W
LayerCount: 2
Fore
SplineSet
192 343 m 1,0,-1
 192 228 l 1,1,-1
 80 228 l 1,2,-1
 80 343 l 1,3,-1
 192 343 l 1,4,-1
 192 343 l 1,0,-1
EndSplineSet
EndChar

StartChar: cedilla
Encoding: 184 184 135
Width: 411
Flags: W
LayerCount: 2
Fore
SplineSet
228 -140 m 1,0,-1
 286 -114 l 1,1,-1
 286 -79 l 1,2,-1
 228 -54 l 1,3,-1
 228 -1 l 1,4,-1
 331 -45 l 1,5,-1
 331 -148 l 1,6,-1
 228 -194 l 1,7,-1
 228 -140 l 1,0,-1
80 -148 m 1,8,-1
 125 -114 l 1,9,-1
 183 -140 l 1,10,-1
 183 -194 l 1,11,-1
 80 -148 l 1,8,-1
EndSplineSet
EndChar

StartChar: questiondown
Encoding: 191 191 136
Width: 789
Flags: W
LayerCount: 2
Fore
SplineSet
510 296 m 1,0,-1
 372 296 l 1,1,-1
 372 437 l 1,2,-1
 510 437 l 1,3,-1
 510 296 l 1,0,-1
60 -69 m 1,4,-1
 173 -138 l 1,5,-1
 380 -138 l 1,6,-1
 380 -25 l 1,7,-1
 186 -25 l 1,8,-1
 186 93 l 1,9,-1
 380 93 l 1,10,-1
 497 162 l 1,11,-1
 497 243 l 1,12,-1
 372 243 l 1,13,-1
 372 207 l 1,14,-1
 173 207 l 1,15,-1
 60 137 l 1,16,-1
 60 -69 l 1,4,-1
749 45 m 1,17,-1
 749 -69 l 1,18,-1
 635 -138 l 1,19,-1
 429 -138 l 1,20,-1
 429 -25 l 1,21,-1
 635 -25 l 1,22,-1
 635 45 l 1,23,-1
 749 45 l 1,17,-1
EndSplineSet
EndChar

StartChar: onehalf
Encoding: 189 189 137
Width: 620
Flags: W
LayerCount: 2
Fore
SplineSet
495 672 m 1,0,-1
 121 1 l 1,1,-1
 61 1 l 1,2,-1
 427 672 l 1,3,-1
 495 672 l 1,0,-1
331 79 m 1,4,-1
 382 109 l 1,5,-1
 425 109 l 1,6,-1
 425 59 l 1,7,-1
 386 59 l 1,8,-1
 386 10 l 1,9,-1
 424 10 l 1,10,-1
 424 -40 l 1,11,-1
 331 -40 l 1,12,-1
 331 79 l 1,4,-1
331 129 m 1,13,-1
 331 179 l 1,14,-1
 382 208 l 1,15,-1
 425 208 l 1,16,-1
 425 159 l 1,17,-1
 386 159 l 1,18,-1
 386 129 l 1,19,-1
 331 129 l 1,13,-1
540 -40 m 1,20,-1
 447 -40 l 1,21,-1
 447 10 l 1,22,-1
 540 10 l 1,23,-1
 540 -40 l 1,20,-1
484 59 m 1,24,-1
 446 59 l 1,25,-1
 446 109 l 1,26,-1
 484 109 l 1,27,-1
 484 159 l 1,28,-1
 446 159 l 1,29,-1
 446 208 l 1,30,-1
 490 208 l 1,31,-1
 540 179 l 1,32,-1
 540 90 l 1,33,-1
 484 59 l 1,24,-1
180 463 m 1,34,-1
 130 463 l 1,35,-1
 130 652 l 1,36,-1
 40 617 l 1,37,-1
 40 672 l 1,38,-1
 130 714 l 1,39,-1
 130 714 l 1,40,-1
 180 714 l 1,41,-1
 180 463 l 1,34,-1
EndSplineSet
EndChar

StartChar: threequarters
Encoding: 190 190 138
Width: 625
Flags: W
LayerCount: 2
Fore
SplineSet
497 674 m 1,0,-1
 121 0 l 1,1,-1
 62 0 l 1,2,-1
 430 674 l 1,3,-1
 497 674 l 1,0,-1
545 -41 m 1,4,-1
 496 -41 l 1,5,-1
 496 58 l 1,6,-1
 451 58 l 1,7,-1
 451 109 l 1,8,-1
 496 109 l 1,9,-1
 496 211 l 1,10,-1
 545 211 l 1,11,-1
 545 -41 l 1,4,-1
382 109 m 1,12,-1
 429 109 l 1,13,-1
 429 58 l 1,14,-1
 333 58 l 1,15,-1
 333 210 l 1,16,-1
 382 210 l 1,17,-1
 382 109 l 1,12,-1
204 466 m 1,18,-1
 159 466 l 1,19,-1
 159 516 l 1,20,-1
 199 516 l 1,21,-1
 199 566 l 1,22,-1
 158 566 l 1,23,-1
 158 616 l 1,24,-1
 199 616 l 1,25,-1
 199 666 l 1,26,-1
 158 666 l 1,27,-1
 158 716 l 1,28,-1
 204 716 l 1,29,-1
 253 686 l 1,30,-1
 253 611 l 1,31,-1
 214 592 l 1,32,-1
 253 571 l 1,33,-1
 253 496 l 1,34,-1
 204 466 l 1,18,-1
95 547 m 1,35,-1
 95 516 l 1,36,-1
 137 516 l 1,37,-1
 137 466 l 1,38,-1
 90 466 l 1,39,-1
 40 496 l 1,40,-1
 40 547 l 1,41,-1
 95 547 l 1,35,-1
41 637 m 1,42,-1
 41 686 l 1,43,-1
 90 716 l 1,44,-1
 138 716 l 1,45,-1
 138 666 l 1,46,-1
 95 666 l 1,47,-1
 95 637 l 1,48,-1
 41 637 l 1,42,-1
138 566 m 1,49,-1
 126 566 l 1,50,-1
 126 616 l 1,51,-1
 138 616 l 1,52,-1
 138 566 l 1,49,-1
EndSplineSet
EndChar

StartChar: onequarter
Encoding: 188 188 139
Width: 623
Flags: W
LayerCount: 2
Fore
SplineSet
496 672 m 1,0,-1
 122 0 l 1,1,-1
 61 0 l 1,2,-1
 426 672 l 1,3,-1
 496 672 l 1,0,-1
180 463 m 1,4,-1
 130 463 l 1,5,-1
 130 653 l 1,6,-1
 40 618 l 1,7,-1
 40 672 l 1,8,-1
 130 714 l 1,9,-1
 180 714 l 1,10,-1
 180 463 l 1,4,-1
543 -41 m 1,11,-1
 493 -41 l 1,12,-1
 493 59 l 1,13,-1
 448 59 l 1,14,-1
 448 108 l 1,15,-1
 493 108 l 1,16,-1
 493 211 l 1,17,-1
 543 211 l 1,18,-1
 543 -41 l 1,11,-1
380 108 m 1,19,-1
 429 108 l 1,20,-1
 429 59 l 1,21,-1
 331 59 l 1,22,-1
 331 208 l 1,23,-1
 380 208 l 1,24,-1
 380 108 l 1,19,-1
EndSplineSet
EndChar

StartChar: ordfeminine
Encoding: 170 170 140
Width: 354
Flags: W
LayerCount: 2
Fore
SplineSet
80 510 m 1,0,-1
 80 555 l 1,1,-1
 122 577 l 1,2,-1
 161 577 l 1,3,-1
 161 532 l 1,4,-1
 124 532 l 1,5,-1
 124 510 l 1,6,-1
 80 510 l 1,0,-1
80 464 m 1,7,-1
 115 487 l 1,8,-1
 161 487 l 1,9,-1
 161 441 l 1,10,-1
 124 441 l 1,11,-1
 124 384 l 1,12,-1
 161 384 l 1,13,-1
 161 338 l 1,14,-1
 122 338 l 1,15,-1
 80 362 l 1,16,-1
 80 464 l 1,7,-1
274 555 m 1,17,-1
 228 577 l 1,18,-1
 183 577 l 1,19,-1
 183 532 l 1,20,-1
 228 532 l 1,21,-1
 228 487 l 1,22,-1
 183 487 l 1,23,-1
 183 441 l 1,24,-1
 228 441 l 1,25,-1
 228 384 l 1,26,-1
 183 384 l 1,27,-1
 183 338 l 1,28,-1
 274 338 l 1,29,-1
 274 555 l 1,17,-1
EndSplineSet
EndChar

StartChar: twosuperior
Encoding: 178 178 141
Width: 353
Flags: W
LayerCount: 2
Fore
SplineSet
80 464 m 1,0,-1
 125 487 l 1,1,-1
 160 487 l 1,2,-1
 160 441 l 1,3,-1
 125 441 l 1,4,-1
 125 384 l 1,5,-1
 160 384 l 1,6,-1
 160 339 l 1,7,-1
 80 339 l 1,8,-1
 80 464 l 1,0,-1
80 510 m 1,9,-1
 80 548 l 1,10,-1
 137 577 l 1,11,-1
 160 577 l 1,12,-1
 160 532 l 1,13,-1
 125 532 l 1,14,-1
 125 510 l 1,15,-1
 80 510 l 1,9,-1
273 339 m 1,16,-1
 182 339 l 1,17,-1
 182 384 l 1,18,-1
 273 384 l 1,19,-1
 273 339 l 1,16,-1
230 441 m 1,20,-1
 182 441 l 1,21,-1
 182 487 l 1,22,-1
 228 487 l 1,23,-1
 228 532 l 1,24,-1
 182 532 l 1,25,-1
 182 577 l 1,26,-1
 228 577 l 1,27,-1
 273 548 l 1,28,-1
 273 464 l 1,29,-1
 230 441 l 1,20,-1
EndSplineSet
EndChar

StartChar: threesuperior
Encoding: 179 179 142
Width: 354
Flags: W
LayerCount: 2
Fore
SplineSet
228 338 m 1,0,-1
 181 338 l 1,1,-1
 181 384 l 1,2,-1
 228 384 l 1,3,-1
 228 441 l 1,4,-1
 180 441 l 1,5,-1
 180 486 l 1,6,-1
 228 486 l 1,7,-1
 228 532 l 1,8,-1
 180 532 l 1,9,-1
 180 577 l 1,10,-1
 228 577 l 1,11,-1
 274 548 l 1,12,-1
 274 486 l 1,13,-1
 235 464 l 1,14,-1
 274 441 l 1,15,-1
 274 362 l 1,16,-1
 228 338 l 1,0,-1
119 411 m 1,17,-1
 119 384 l 1,18,-1
 160 384 l 1,19,-1
 160 338 l 1,20,-1
 126 338 l 1,21,-1
 80 362 l 1,22,-1
 80 411 l 1,23,-1
 119 411 l 1,17,-1
80 509 m 1,24,-1
 80 548 l 1,25,-1
 126 577 l 1,26,-1
 161 577 l 1,27,-1
 161 532 l 1,28,-1
 126 532 l 1,29,-1
 126 509 l 1,30,-1
 80 509 l 1,24,-1
161 441 m 1,31,-1
 149 441 l 1,32,-1
 149 486 l 1,33,-1
 161 486 l 1,34,-1
 161 441 l 1,31,-1
EndSplineSet
EndChar

StartChar: guilsinglleft
Encoding: 8249 8249 143
Width: 280
Flags: W
LayerCount: 2
Fore
SplineSet
50 254 m 1,0,-1
 230 391 l 1,1,-1
 230 334 l 1,2,-1
 94 231 l 1,3,-1
 230 118 l 1,4,-1
 230 60 l 1,5,-1
 50 208 l 1,6,-1
 50 254 l 1,0,-1
EndSplineSet
EndChar

StartChar: guilsinglright
Encoding: 8250 8250 144
Width: 280
Flags: W
LayerCount: 2
Fore
SplineSet
230 208 m 1,0,-1
 50 60 l 1,1,-1
 50 118 l 1,2,-1
 186 231 l 1,3,-1
 50 334 l 1,4,-1
 50 391 l 1,5,-1
 230 254 l 1,6,-1
 230 208 l 1,0,-1
EndSplineSet
EndChar

StartChar: numbersign
Encoding: 35 35 145
Width: 434
Flags: W
LayerCount: 2
Fore
SplineSet
384 264 m 1,0,-1
 318 264 l 1,1,-1
 291 184 l 1,2,-1
 384 184 l 1,3,-1
 384 136 l 1,4,-1
 275 136 l 1,5,-1
 245 47 l 1,6,-1
 245 47 l 1,7,-1
 245 47 l 1,8,-1
 199 47 l 1,9,-1
 228 136 l 1,10,-1
 149 136 l 1,11,-1
 119 47 l 1,12,-1
 119 47 l 1,13,-1
 119 47 l 1,14,-1
 73 47 l 1,15,-1
 103 136 l 1,16,-1
 50 136 l 1,17,-1
 50 184 l 1,18,-1
 118 184 l 1,19,-1
 144 264 l 1,20,-1
 50 264 l 1,21,-1
 50 312 l 1,22,-1
 160 312 l 1,23,-1
 186 390 l 1,24,-1
 234 390 l 1,25,-1
 208 312 l 1,26,-1
 286 312 l 1,27,-1
 312 390 l 1,28,-1
 360 390 l 1,29,-1
 334 312 l 1,30,-1
 384 312 l 1,31,-1
 384 264 l 1,0,-1
244 184 m 1,32,-1
 270 264 l 1,33,-1
 192 264 l 1,34,-1
 165 184 l 1,35,-1
 244 184 l 1,32,-1
EndSplineSet
EndChar

StartChar: Euro
Encoding: 8364 8364 146
Width: 802
Flags: W
LayerCount: 2
Fore
SplineSet
676 116 m 1,0,-1
 722 1 l 1,1,-1
 401 1 l 1,2,-1
 401 116 l 1,3,-1
 676 116 l 1,4,-1
 676 116 l 1,0,-1
676 462 m 1,5,-1
 399 462 l 1,6,-1
 399 577 l 1,7,-1
 722 577 l 1,8,-1
 676 462 l 1,5,-1
353 462 m 1,9,-1
 284 462 l 1,10,-1
 284 347 l 1,11,-1
 353 347 l 1,12,-1
 353 232 l 1,13,-1
 284 232 l 1,14,-1
 284 116 l 1,15,-1
 351 116 l 1,16,-1
 351 1 l 1,17,-1
 272 1 l 1,18,-1
 157 70 l 1,19,-1
 157 232 l 1,20,-1
 30 232 l 1,21,-1
 76 347 l 1,22,-1
 157 347 l 1,23,-1
 157 508 l 1,24,-1
 272 577 l 1,25,-1
 353 577 l 1,26,-1
 353 462 l 1,9,-1
399 347 m 1,27,-1
 653 347 l 1,28,-1
 653 232 l 1,29,-1
 399 232 l 1,30,-1
 399 347 l 1,31,-1
 399 347 l 1,27,-1
EndSplineSet
EndChar

StartChar: cent
Encoding: 162 162 147
Width: 757
Flags: W
LayerCount: 2
Fore
SplineSet
402 345 m 1,0,-1
 402 564 l 1,1,-1
 449 564 l 1,2,-1
 449 438 l 1,3,-1
 563 438 l 1,4,-1
 677 369 l 1,5,-1
 677 300 l 1,6,-1
 552 300 l 1,7,-1
 552 345 l 1,8,-1
 402 345 l 1,0,-1
552 139 m 1,9,-1
 677 139 l 1,10,-1
 677 71 l 1,11,-1
 563 0 l 1,12,-1
 449 0 l 1,13,-1
 449 -90 l 1,14,-1
 402 -90 l 1,15,-1
 402 105 l 1,16,-1
 552 105 l 1,17,-1
 552 139 l 1,9,-1
308 564 m 1,18,-1
 356 564 l 1,19,-1
 356 345 l 1,20,-1
 205 345 l 1,21,-1
 205 105 l 1,22,-1
 353 105 l 1,23,-1
 353 -90 l 1,24,-1
 305 -90 l 1,25,-1
 305 0 l 1,26,-1
 195 0 l 1,27,-1
 80 71 l 1,28,-1
 80 369 l 1,29,-1
 195 438 l 1,30,-1
 308 438 l 1,31,-1
 308 564 l 1,18,-1
EndSplineSet
EndChar

StartChar: dieresis
Encoding: 168 168 157
Width: 516
Flags: W
LayerCount: 2
Fore
SplineSet
197 513 m 1,0,-1
 80 514 l 1,1,-1
 80 574 l 1,2,-1
 197 574 l 1,3,-1
 197 513 l 1,0,-1
323 513 m 1,4,-1
 436 514 l 1,5,-1
 436 574 l 1,6,-1
 323 574 l 1,7,-1
 323 513 l 1,4,-1
197 513 m 1,8,-1
 80 514 l 1,9,-1
 80 574 l 1,10,-1
 197 574 l 1,11,-1
 197 513 l 1,8,-1
323 513 m 1,12,-1
 436 514 l 1,13,-1
 436 574 l 1,14,-1
 323 574 l 1,15,-1
 323 513 l 1,12,-1
EndSplineSet
EndChar

StartChar: oslash
Encoding: 248 248 160
Width: 749
Flags: W
LayerCount: 2
Fore
SplineSet
356 2 m 1,0,-1
 195 2 l 1,1,-1
 169 18 l 1,2,-1
 149 2 l 1,3,-1
 80 1 l 1,4,-1
 128 43 l 1,5,-1
 80 71 l 1,6,-1
 80 371 l 1,7,-1
 195 440 l 1,8,-1
 356 440 l 1,9,-1
 356 347 l 1,10,-1
 203 347 l 1,11,-1
 203 106 l 1,12,-1
 356 234 l 1,13,-1
 356 178 l 1,14,-1
 272 106 l 1,15,-1
 356 106 l 1,16,-1
 356 2 l 1,0,-1
619 399 m 1,17,18
 628 394 628 394 636.5 389 c 128,-1,19
 645 384 645 384 653 380 c 256,20,21
 661 376 661 376 669 371 c 1,22,-1
 669 71 l 1,23,-1
 552 2 l 1,24,-1
 401 2 l 1,25,-1
 401 106 l 1,26,-1
 542 106 l 1,27,-1
 542 336 l 1,28,-1
 401 215 l 1,29,-1
 401 274 l 1,30,-1
 489 347 l 1,31,-1
 401 347 l 1,32,-1
 401 440 l 1,33,-1
 552 440 l 1,34,35
 555 438 555 438 559 435 c 0,36,37
 563 433 563 433 567.5 430 c 128,-1,38
 572 427 572 427 579 423 c 1,39,-1
 598 439 l 1,40,-1
 669 440 l 1,41,-1
 619 399 l 1,17,18
EndSplineSet
EndChar

StartChar: Oslash
Encoding: 216 216 164
Width: 847
Flags: W
LayerCount: 2
Fore
SplineSet
80 507 m 1,0,-1
 194 575 l 1,1,-1
 401 575 l 1,2,-1
 401 460 l 1,3,-1
 206 460 l 1,4,-1
 206 119 l 1,5,-1
 401 300 l 1,6,-1
 401 236 l 1,7,-1
 271 116 l 1,8,-1
 401 116 l 1,9,-1
 401 3 l 1,10,-1
 194 3 l 1,11,-1
 166 20 l 1,12,-1
 148 4 l 1,13,-1
 80 3 l 1,14,-1
 125 43 l 1,15,-1
 80 72 l 1,16,-1
 80 507 l 1,0,-1
767 575 m 1,17,-1
 722 534 l 1,18,-1
 767 507 l 1,19,-1
 767 72 l 1,20,-1
 652 3 l 1,21,-1
 446 3 l 1,22,-1
 446 116 l 1,23,-1
 641 116 l 1,24,-1
 641 458 l 1,25,-1
 446 278 l 1,26,-1
 446 343 l 1,27,-1
 574 460 l 1,28,-1
 446 460 l 1,29,-1
 446 575 l 1,30,-1
 652 575 l 1,31,-1
 680 559 l 1,32,-1
 698 575 l 1,33,-1
 767 575 l 1,17,-1
EndSplineSet
EndChar

StartChar: lslash
Encoding: 322 322 202
Width: 342
Flags: W
LayerCount: 2
Fore
SplineSet
292 438 m 1,0,-1
 292 391 l 1,1,-1
 235 377 l 1,2,-1
 235 -1 l 1,3,-1
 107 -1 l 1,4,-1
 107 347 l 1,5,-1
 50 333 l 1,6,-1
 50 380 l 1,7,-1
 107 393 l 1,8,-1
 107 577 l 1,9,-1
 235 577 l 1,10,-1
 235 424 l 1,11,-1
 292 438 l 1,12,-1
 292 438 l 1,0,-1
EndSplineSet
EndChar

StartChar: dagger
Encoding: 8224 8224 203
Width: 497
Flags: W
LayerCount: 2
Fore
SplineSet
477 230 m 1,0,-1
 316 230 l 1,1,-1
 316 -194 l 1,2,-1
 190 -194 l 1,3,-1
 190 230 l 1,4,-1
 20 230 l 1,5,-1
 20 265 l 1,6,-1
 190 265 l 1,7,-1
 190 575 l 1,8,-1
 316 575 l 1,9,-1
 316 265 l 1,10,-1
 477 265 l 1,11,-1
 477 230 l 1,0,-1
EndSplineSet
EndChar

StartChar: perthousand
Encoding: 8240 8240 204
Width: 932
Flags: W
LayerCount: 2
Fore
SplineSet
552 664 m 1,0,-1
 182 1 l 1,1,-1
 112 1 l 1,2,-1
 475 663 l 1,3,-1
 552 664 l 1,0,-1
233 513 m 1,4,-1
 291 539 l 1,5,-1
 291 633 l 1,6,-1
 233 658 l 1,7,-1
 233 713 l 1,8,-1
 337 668 l 1,9,-1
 337 504 l 1,10,-1
 233 457 l 1,11,-1
 233 513 l 1,4,-1
80 504 m 1,12,-1
 80 668 l 1,13,-1
 185 713 l 1,14,-1
 185 658 l 1,15,-1
 126 633 l 1,16,-1
 126 539 l 1,17,-1
 185 513 l 1,18,-1
 185 457 l 1,19,-1
 80 504 l 1,12,-1
490 12 m 1,20,-1
 548 38 l 1,21,-1
 548 132 l 1,22,-1
 490 158 l 1,23,-1
 490 212 l 1,24,-1
 594 167 l 1,25,-1
 594 3 l 1,26,-1
 490 -44 l 1,27,-1
 490 12 l 1,20,-1
337 3 m 1,28,-1
 337 167 l 1,29,-1
 442 212 l 1,30,-1
 442 158 l 1,31,-1
 383 132 l 1,32,-1
 383 38 l 1,33,-1
 442 12 l 1,34,-1
 442 -44 l 1,35,-1
 337 3 l 1,28,-1
798 12 m 1,36,-1
 856 38 l 1,37,-1
 856 132 l 1,38,-1
 798 158 l 1,39,-1
 798 212 l 1,40,-1
 902 167 l 1,41,-1
 902 3 l 1,42,-1
 798 -44 l 1,43,-1
 798 12 l 1,36,-1
645 3 m 1,44,-1
 645 167 l 1,45,-1
 750 212 l 1,46,-1
 750 158 l 1,47,-1
 691 132 l 1,48,-1
 691 38 l 1,49,-1
 750 12 l 1,50,-1
 750 -44 l 1,51,-1
 645 3 l 1,44,-1
EndSplineSet
EndChar

StartChar: ae
Encoding: 230 230 207
Width: 843
Flags: W
LayerCount: 2
Fore
SplineSet
80 197 m 1,0,-1
 196 266 l 1,1,-1
 313 266 l 1,2,-1
 313 186 l 1,3,-1
 205 186 l 1,4,-1
 205 105 l 1,5,-1
 313 105 l 1,6,-1
 313 1 l 1,7,-1
 196 1 l 1,8,-1
 80 70 l 1,9,-1
 80 197 l 1,0,-1
763 255 m 1,10,-1
 648 186 l 1,11,-1
 535 186 l 1,12,-1
 535 266 l 1,13,-1
 638 266 l 1,14,-1
 638 347 l 1,15,-1
 537 347 l 1,16,-1
 537 439 l 1,17,-1
 648 439 l 1,18,-1
 763 370 l 1,19,-1
 763 255 l 1,10,-1
636 140 m 1,20,-1
 636 105 l 1,21,-1
 486 105 l 1,22,-1
 486 439 l 1,23,-1
 475 439 l 1,24,-1
 423 408 l 1,25,-1
 371 439 l 1,26,-1
 198 439 l 1,27,-1
 83 370 l 1,28,-1
 83 301 l 1,29,-1
 209 301 l 1,30,-1
 209 347 l 1,31,-1
 360 347 l 1,32,-1
 360 1 l 1,33,-1
 648 1 l 1,34,-1
 763 70 l 1,35,-1
 763 140 l 1,36,-1
 636 140 l 1,20,-1
EndSplineSet
EndChar

StartChar: AE
Encoding: 198 198 208
Width: 848
Flags: W
LayerCount: 2
Fore
SplineSet
457 574 m 1,0,-1
 778 574 l 1,1,-1
 778 460 l 1,2,-1
 583 460 l 1,3,-1
 583 345 l 1,4,-1
 654 345 l 1,5,-1
 654 230 l 1,6,-1
 583 230 l 1,7,-1
 583 115 l 1,8,-1
 776 115 l 1,9,-1
 776 1 l 1,10,-1
 457 1 l 1,11,-1
 457 574 l 1,12,-1
 457 574 l 1,0,-1
90 505 m 1,13,-1
 205 574 l 1,14,-1
 412 574 l 1,15,-1
 412 437 l 1,16,-1
 216 437 l 1,17,-1
 216 345 l 1,18,-1
 412 345 l 1,19,-1
 412 230 l 1,20,-1
 216 230 l 1,21,-1
 216 1 l 1,22,-1
 90 1 l 1,23,-1
 90 505 l 1,24,-1
 90 505 l 1,13,-1
EndSplineSet
EndChar

StartChar: ring
Encoding: 730 730 209
Width: 436
Flags: W
LayerCount: 2
Fore
SplineSet
242 514 m 1,0,-1
 311 539 l 1,1,-1
 311 632 l 1,2,-1
 242 656 l 1,3,-1
 242 713 l 1,4,-1
 356 668 l 1,5,-1
 356 506 l 1,6,-1
 242 458 l 1,7,-1
 242 514 l 1,0,-1
80 506 m 1,8,-1
 80 668 l 1,9,-1
 194 709 l 1,10,-1
 194 656 l 1,11,-1
 125 632 l 1,12,-1
 125 539 l 1,13,-1
 194 514 l 1,14,-1
 194 458 l 1,15,-1
 80 506 l 1,8,-1
EndSplineSet
EndChar

StartChar: hungarumlaut
Encoding: 733 733 210
Width: 516
Flags: W
LayerCount: 2
Fore
SplineSet
197 690 m 1,0,-1
 80 621 l 1,1,-1
 80 714 l 1,2,-1
 197 714 l 1,3,-1
 197 690 l 1,0,-1
436 690 m 1,4,-1
 323 621 l 1,5,-1
 323 714 l 1,6,-1
 436 714 l 1,7,-1
 436 690 l 1,4,-1
197 690 m 1,8,-1
 80 621 l 1,9,-1
 80 714 l 1,10,-1
 197 714 l 1,11,-1
 197 690 l 1,8,-1
436 690 m 1,12,-1
 323 621 l 1,13,-1
 323 714 l 1,14,-1
 436 714 l 1,15,-1
 436 690 l 1,12,-1
EndSplineSet
EndChar

StartChar: caron
Encoding: 711 711 211
Width: 468
Flags: W
LayerCount: 2
Fore
SplineSet
388 711 m 1,0,-1
 260 614 l 1,1,-1
 260 614 l 1,2,-1
 260 614 l 1,3,-1
 214 614 l 1,4,-1
 80 711 l 1,5,-1
 157 711 l 1,6,-1
 236 655 l 1,7,-1
 311 711 l 1,8,-1
 388 711 l 1,0,-1
EndSplineSet
EndChar

StartChar: Lslash
Encoding: 321 321 212
Width: 826
Flags: W
LayerCount: 2
Fore
SplineSet
230 578 m 1,0,-1
 230 390 l 1,1,-1
 427 437 l 1,2,-1
 427 394 l 1,3,-1
 230 345 l 1,4,-1
 230 116 l 1,5,-1
 424 116 l 1,6,-1
 424 0 l 1,7,-1
 103 0 l 1,8,-1
 103 314 l 1,9,-1
 45 300 l 1,10,-1
 45 348 l 1,11,-1
 103 360 l 1,12,-1
 103 578 l 1,13,-1
 230 578 l 1,0,-1
474 116 m 1,14,-1
 796 116 l 1,15,-1
 796 0 l 1,16,-1
 474 0 l 1,17,-1
 474 116 l 1,14,-1
EndSplineSet
EndChar

StartChar: dotlessi
Encoding: 305 305 213
Width: 415
Flags: W
LayerCount: 2
Fore
SplineSet
315 439 m 1,0,-1
 315 -1 l 1,1,-1
 199 -1 l 1,2,-1
 199 323 l 1,3,-1
 50 265 l 1,4,-1
 50 369 l 1,5,-1
 212 439 l 1,6,-1
 315 439 l 1,7,-1
 315 439 l 1,0,-1
EndSplineSet
EndChar

StartChar: ogonek
Encoding: 731 731 214
Width: 411
Flags: W
LayerCount: 2
Fore
SplineSet
183 -194 m 1,0,-1
 80 -148 l 1,1,-1
 80 -45 l 1,2,-1
 183 -1 l 1,3,-1
 183 -54 l 1,4,-1
 125 -79 l 1,5,-1
 125 -114 l 1,6,-1
 183 -140 l 1,7,-1
 183 -194 l 1,0,-1
228 -194 m 1,8,-1
 228 -140 l 1,9,-1
 286 -114 l 1,10,-1
 331 -148 l 1,11,-1
 228 -194 l 1,8,-1
EndSplineSet
EndChar

StartChar: breve
Encoding: 728 728 215
Width: 436
Flags: W
LayerCount: 2
Fore
SplineSet
242 627 m 1,0,-1
 311 652 l 1,1,-1
 311 712 l 1,2,-1
 356 712 l 1,3,-1
 356 621 l 1,4,-1
 242 573 l 1,5,-1
 242 627 l 1,0,-1
80 621 m 1,6,-1
 80 712 l 1,7,-1
 125 712 l 1,8,-1
 125 652 l 1,9,-1
 194 627 l 1,10,-1
 194 573 l 1,11,-1
 80 621 l 1,6,-1
EndSplineSet
EndChar

StartChar: Eth
Encoding: 208 208 216
Width: 865
Flags: W
LayerCount: 2
Fore
SplineSet
223 265 m 1,0,-1
 421 265 l 1,1,-1
 421 184 l 1,2,-1
 223 184 l 1,3,-1
 223 116 l 1,4,-1
 417 116 l 1,5,-1
 417 1 l 1,6,-1
 97 1 l 1,7,-1
 97 184 l 1,8,-1
 40 184 l 1,9,-1
 40 265 l 1,10,-1
 97 265 l 1,11,-1
 97 575 l 1,12,-1
 419 575 l 1,13,-1
 419 460 l 1,14,-1
 223 460 l 1,15,-1
 223 265 l 1,0,-1
785 506 m 1,16,-1
 785 70 l 1,17,-1
 670 1 l 1,18,-1
 466 1 l 1,19,-1
 466 116 l 1,20,-1
 659 116 l 1,21,-1
 659 460 l 1,22,-1
 464 460 l 1,23,-1
 464 575 l 1,24,-1
 670 575 l 1,25,-1
 785 506 l 1,16,-1
EndSplineSet
EndChar

StartChar: eth
Encoding: 240 240 217
Width: 745
Flags: W
LayerCount: 2
Fore
SplineSet
195 437 m 1,0,-1
 355 437 l 1,1,-1
 355 345 l 1,2,-1
 204 345 l 1,3,-1
 204 105 l 1,4,-1
 355 105 l 1,5,-1
 355 1 l 1,6,-1
 195 1 l 1,7,-1
 80 70 l 1,8,-1
 80 369 l 1,9,-1
 195 437 l 1,0,-1
665 369 m 1,10,-1
 665 70 l 1,11,-1
 550 1 l 1,12,-1
 401 1 l 1,13,-1
 401 105 l 1,14,-1
 540 105 l 1,15,-1
 540 345 l 1,16,-1
 401 345 l 1,17,-1
 401 437 l 1,18,-1
 530 437 l 1,19,-1
 470 496 l 1,20,-1
 432 458 l 1,21,-1
 400 491 l 1,22,-1
 437 529 l 1,23,-1
 401 565 l 1,24,-1
 433 597 l 1,25,-1
 469 561 l 1,26,-1
 506 596 l 1,27,-1
 538 564 l 1,28,-1
 503 529 l 1,29,-1
 665 369 l 1,10,-1
EndSplineSet
EndChar

StartChar: thorn
Encoding: 254 254 218
Width: 777
Flags: W
LayerCount: 2
Fore
SplineSet
697 368 m 1,0,-1
 697 126 l 1,1,-1
 582 58 l 1,2,-1
 423 58 l 1,3,-1
 423 138 l 1,4,-1
 574 138 l 1,5,-1
 574 344 l 1,6,-1
 421 344 l 1,7,-1
 421 436 l 1,8,-1
 582 436 l 1,9,-1
 697 368 l 1,0,-1
225 436 m 1,10,-1
 375 436 l 1,11,-1
 375 344 l 1,12,-1
 225 344 l 1,13,-1
 225 138 l 1,14,-1
 372 138 l 1,15,-1
 372 58 l 1,16,-1
 225 58 l 1,17,-1
 225 -195 l 1,18,-1
 100 -195 l 1,19,-1
 100 575 l 1,20,-1
 225 575 l 1,21,-1
 225 436 l 1,10,-1
EndSplineSet
EndChar

StartChar: Thorn
Encoding: 222 222 219
Width: 820
Flags: W
LayerCount: 2
Fore
SplineSet
790 505 m 1,0,-1
 790 299 l 1,1,-1
 675 231 l 1,2,-1
 467 231 l 1,3,-1
 467 344 l 1,4,-1
 663 344 l 1,5,-1
 663 459 l 1,6,-1
 467 459 l 1,7,-1
 467 575 l 1,8,-1
 675 575 l 1,9,-1
 790 505 l 1,0,-1
226 575 m 1,10,-1
 422 575 l 1,11,-1
 422 459 l 1,12,-1
 226 459 l 1,13,-1
 226 344 l 1,14,-1
 422 344 l 1,15,-1
 422 231 l 1,16,-1
 226 231 l 1,17,-1
 226 1 l 1,18,-1
 100 1 l 1,19,-1
 100 712 l 1,20,-1
 226 712 l 1,21,-1
 226 575 l 1,10,-1
EndSplineSet
EndChar

StartChar: germandbls
Encoding: 223 223 220
Width: 863
Flags: W
LayerCount: 2
Fore
SplineSet
100 577 m 1,0,-1
 423 577 l 1,1,-1
 423 462 l 1,2,-1
 227 462 l 1,3,-1
 227 0 l 1,4,-1
 100 0 l 1,5,-1
 100 577 l 1,6,-1
 100 577 l 1,0,-1
793 70 m 1,7,-1
 793 243 l 1,8,-1
 700 289 l 1,9,-1
 793 335 l 1,10,-1
 793 508 l 1,11,-1
 677 577 l 1,12,-1
 470 577 l 1,13,-1
 470 462 l 1,14,-1
 666 462 l 1,15,-1
 666 347 l 1,16,-1
 470 347 l 1,17,-1
 470 231 l 1,18,-1
 666 231 l 1,19,-1
 666 116 l 1,20,-1
 472 116 l 1,21,-1
 472 0 l 1,22,-1
 677 0 l 1,23,-1
 793 70 l 1,24,-1
 793 70 l 1,7,-1
EndSplineSet
EndChar

StartChar: mu
Encoding: 181 181 221
AltUni2: 0003bc.ffffffff.0
Width: 795
Flags: W
LayerCount: 2
Fore
SplineSet
695 438 m 1,0,-1
 695 2 l 1,1,-1
 569 2 l 1,2,-1
 569 48 l 1,3,-1
 421 2 l 1,4,-1
 421 105 l 1,5,-1
 569 105 l 1,6,-1
 569 438 l 1,7,-1
 695 438 l 1,0,-1
227 105 m 1,8,-1
 375 105 l 1,9,-1
 375 2 l 1,10,-1
 227 2 l 1,11,-1
 227 -194 l 1,12,-1
 100 -194 l 1,13,-1
 100 438 l 1,14,-1
 226 438 l 1,15,-1
 227 438 l 1,16,-1
 227 105 l 1,8,-1
EndSplineSet
EndChar

StartChar: yen
Encoding: 165 165 222
Width: 755
Flags: W
LayerCount: 2
Fore
SplineSet
725 543 m 1,0,-1
 435 265 l 1,1,-1
 609 265 l 1,2,-1
 609 230 l 1,3,-1
 435 230 l 1,4,-1
 435 184 l 1,5,-1
 609 184 l 1,6,-1
 609 150 l 1,7,-1
 435 150 l 1,8,-1
 435 -1 l 1,9,-1
 319 -1 l 1,10,-1
 319 150 l 1,11,-1
 149 150 l 1,12,-1
 149 184 l 1,13,-1
 319 184 l 1,14,-1
 319 230 l 1,15,-1
 149 230 l 1,16,-1
 149 265 l 1,17,-1
 319 265 l 1,18,-1
 319 265 l 1,19,-1
 30 543 l 1,20,-1
 146 578 l 1,21,-1
 377 358 l 1,22,-1
 377 358 l 1,23,-1
 609 578 l 1,24,-1
 725 543 l 1,25,-1
 725 543 l 1,0,-1
EndSplineSet
EndChar

StartChar: currency
Encoding: 164 164 223
Width: 772
Flags: W
LayerCount: 2
Fore
SplineSet
625 136 m 1,0,-1
 742 85 l 1,1,-1
 705 1 l 1,2,-1
 549 68 l 1,3,-1
 408 3 l 1,4,-1
 408 115 l 1,5,-1
 501 158 l 1,6,-1
 501 299 l 1,7,-1
 408 339 l 1,8,-1
 408 438 l 1,9,-1
 409 439 l 1,10,-1
 558 375 l 1,11,-1
 705 438 l 1,12,-1
 742 354 l 1,13,-1
 625 303 l 1,14,-1
 625 136 l 1,0,-1
147 303 m 1,15,-1
 30 354 l 1,16,-1
 67 438 l 1,17,-1
 214 375 l 1,18,-1
 363 439 l 1,19,-1
 363 438 l 1,20,-1
 363 339 l 1,21,-1
 271 299 l 1,22,-1
 271 158 l 1,23,-1
 363 115 l 1,24,-1
 363 3 l 1,25,-1
 223 68 l 1,26,-1
 67 1 l 1,27,-1
 30 85 l 1,28,-1
 147 136 l 1,29,-1
 147 303 l 1,15,-1
EndSplineSet
EndChar

StartChar: daggerdbl
Encoding: 8225 8225 224
Width: 498
Flags: W
LayerCount: 2
Fore
SplineSet
317 186 m 1,0,-1
 478 186 l 1,1,-1
 478 152 l 1,2,-1
 317 152 l 1,3,-1
 317 -194 l 1,4,-1
 190 -194 l 1,5,-1
 190 152 l 1,6,-1
 20 152 l 1,7,-1
 20 186 l 1,8,-1
 190 186 l 1,9,-1
 190 232 l 1,10,-1
 20 232 l 1,11,-1
 20 266 l 1,12,-1
 190 266 l 1,13,-1
 190 577 l 1,14,-1
 317 577 l 1,15,-1
 317 266 l 1,16,-1
 478 266 l 1,17,-1
 478 232 l 1,18,-1
 317 232 l 1,19,-1
 317 186 l 1,0,-1
EndSplineSet
EndChar

StartChar: sterling
Encoding: 163 163 225
Width: 682
Flags: W
LayerCount: 2
Fore
SplineSet
652 437 m 1,0,-1
 526 437 l 1,1,-1
 526 482 l 1,2,-1
 444 482 l 1,3,-1
 444 574 l 1,4,-1
 537 574 l 1,5,-1
 652 505 l 1,6,-1
 652 437 l 1,0,-1
444 103 m 1,7,-1
 650 103 l 1,8,-1
 650 -1 l 1,9,-1
 444 -1 l 1,10,-1
 444 103 l 1,7,-1
400 482 m 1,11,-1
 280 482 l 1,12,-1
 280 344 l 1,13,-1
 400 344 l 1,14,-1
 400 263 l 1,15,-1
 280 263 l 1,16,-1
 280 103 l 1,17,-1
 396 103 l 1,18,-1
 396 -1 l 1,19,-1
 95 -1 l 1,20,-1
 95 103 l 1,21,-1
 153 103 l 1,22,-1
 153 263 l 1,23,-1
 50 263 l 1,24,-1
 50 344 l 1,25,-1
 153 344 l 1,26,-1
 153 436 l 1,27,-1
 153 505 l 1,28,-1
 269 574 l 1,29,-1
 400 574 l 1,30,-1
 400 482 l 1,11,-1
EndSplineSet
EndChar

StartChar: florin
Encoding: 402 402 226
Width: 639
Flags: W
LayerCount: 2
Fore
SplineSet
343 347 m 1,0,-1
 493 347 l 1,1,-1
 493 266 l 1,2,-1
 343 266 l 1,3,-1
 343 347 l 1,0,-1
172 508 m 1,4,-1
 297 578 l 1,5,-1
 297 -124 l 1,6,-1
 181 -194 l 1,7,-1
 20 -194 l 1,8,-1
 20 -92 l 1,9,-1
 172 -92 l 1,10,-1
 172 266 l 1,11,-1
 20 266 l 1,12,-1
 20 347 l 1,13,-1
 172 347 l 1,14,-1
 172 508 l 1,4,-1
619 439 m 1,15,-1
 493 439 l 1,16,-1
 493 485 l 1,17,-1
 343 485 l 1,18,-1
 343 578 l 1,19,-1
 505 578 l 1,20,-1
 619 508 l 1,21,-1
 619 439 l 1,15,-1
EndSplineSet
EndChar

StartChar: oe
Encoding: 339 339 227
Width: 873
Flags: W
LayerCount: 2
Fore
SplineSet
678 183 m 1,0,-1
 600 183 l 1,1,-1
 600 264 l 1,2,-1
 669 264 l 1,3,-1
 669 344 l 1,4,-1
 602 344 l 1,5,-1
 602 437 l 1,6,-1
 678 437 l 1,7,-1
 793 368 l 1,8,-1
 793 253 l 1,9,-1
 678 183 l 1,0,-1
793 137 m 1,10,-1
 793 68 l 1,11,-1
 678 0 l 1,12,-1
 600 0 l 1,13,-1
 600 103 l 1,14,-1
 667 103 l 1,15,-1
 667 137 l 1,16,-1
 793 137 l 1,10,-1
195 437 m 1,17,-1
 261 437 l 1,18,-1
 261 344 l 1,19,-1
 204 344 l 1,20,-1
 204 103 l 1,21,-1
 261 103 l 1,22,-1
 261 0 l 1,23,-1
 195 0 l 1,24,-1
 80 68 l 1,25,-1
 80 368 l 1,26,-1
 195 437 l 1,17,-1
494 344 m 1,27,-1
 494 264 l 1,28,-1
 553 264 l 1,29,-1
 553 183 l 1,30,-1
 494 183 l 1,31,-1
 494 103 l 1,32,-1
 553 103 l 1,33,-1
 553 0 l 1,34,-1
 482 0 l 1,35,-1
 429 31 l 1,36,-1
 375 0 l 1,37,-1
 307 0 l 1,38,-1
 307 103 l 1,39,-1
 366 103 l 1,40,-1
 366 344 l 1,41,-1
 307 344 l 1,42,-1
 307 437 l 1,43,-1
 375 437 l 1,44,45
 382 432 382 432 391 427 c 0,46,47
 399 422 399 422 408 416 c 128,-1,48
 417 410 417 410 428 404 c 1,49,-1
 482 437 l 1,50,-1
 552 437 l 1,51,-1
 552 344 l 1,52,-1
 494 344 l 1,27,-1
EndSplineSet
EndChar

StartChar: OE
Encoding: 338 338 228
Width: 1014
Flags: W
LayerCount: 2
Fore
SplineSet
80 505 m 1,0,-1
 194 574 l 1,1,-1
 308 574 l 1,2,-1
 308 459 l 1,3,-1
 206 459 l 1,4,-1
 206 116 l 1,5,-1
 306 116 l 1,6,-1
 306 1 l 1,7,-1
 194 1 l 1,8,-1
 80 70 l 1,9,-1
 80 505 l 1,0,-1
355 574 m 1,10,-1
 691 574 l 1,11,-1
 691 459 l 1,12,-1
 585 459 l 1,13,-1
 585 345 l 1,14,-1
 691 345 l 1,15,-1
 691 230 l 1,16,-1
 585 230 l 1,17,-1
 585 116 l 1,18,-1
 689 116 l 1,19,-1
 689 1 l 1,20,-1
 357 1 l 1,21,-1
 357 116 l 1,22,-1
 460 116 l 1,23,-1
 460 459 l 1,24,-1
 355 459 l 1,25,-1
 355 574 l 1,10,-1
739 1 m 1,26,-1
 739 116 l 1,27,-1
 964 116 l 1,28,-1
 964 1 l 1,29,-1
 739 1 l 1,26,-1
964 574 m 1,30,-1
 964 459 l 1,31,-1
 737 459 l 1,32,-1
 737 574 l 1,33,-1
 964 574 l 1,30,-1
804 345 m 1,34,-1
 804 230 l 1,35,-1
 737 230 l 1,36,-1
 737 345 l 1,37,-1
 804 345 l 1,34,-1
EndSplineSet
EndChar

StartChar: logicalnot
Encoding: 172 172 229
Width: 414
Flags: W
LayerCount: 2
Fore
SplineSet
30 324 m 1,0,-1
 364 324 l 1,1,-1
 364 316 l 1,2,-1
 364 137 l 1,3,-1
 308 137 l 1,4,-1
 308 266 l 1,5,-1
 30 266 l 1,6,-1
 30 324 l 1,7,-1
 30 324 l 1,0,-1
EndSplineSet
EndChar

StartChar: paragraph
Encoding: 182 182 230
Width: 649
Flags: W
LayerCount: 2
Fore
SplineSet
360 620 m 1,0,-1
 360 -193 l 1,1,-1
 302 -193 l 1,2,-1
 302 264 l 1,3,-1
 145 264 l 1,4,-1
 30 332 l 1,5,-1
 30 552 l 1,6,-1
 145 620 l 1,7,-1
 360 620 l 1,0,-1
508 493 m 1,8,-1
 508 -193 l 1,9,-1
 451 -193 l 1,10,-1
 451 620 l 1,11,-1
 599 620 l 1,12,-1
 599 506 l 1,13,-1
 508 506 l 1,14,-1
 508 493 l 1,8,-1
EndSplineSet
EndChar

StartChar: glyph232
Encoding: 65540 -1 232
Width: 793
Flags: W
LayerCount: 2
Fore
SplineSet
230 441 m 1,0,-1
 380 441 l 1,1,-1
 380 347 l 1,2,-1
 230 347 l 1,3,-1
 230 1 l 1,4,-1
 103 1 l 1,5,-1
 103 490 l 1,6,-1
 45 490 l 1,7,-1
 45 530 l 1,8,-1
 103 530 l 1,9,-1
 103 579 l 1,10,-1
 230 579 l 1,11,-1
 230 530 l 1,12,-1
 287 530 l 1,13,-1
 287 490 l 1,14,-1
 230 490 l 1,15,-1
 230 441 l 1,0,-1
703 370 m 1,16,-1
 703 1 l 1,17,-1
 576 1 l 1,18,-1
 576 347 l 1,19,-1
 427 347 l 1,20,-1
 427 441 l 1,21,-1
 588 441 l 1,22,-1
 703 370 l 1,16,-1
EndSplineSet
EndChar

StartChar: y
Encoding: 121 121 233
Width: 778
Flags: W
LayerCount: 2
Fore
SplineSet
90 438 m 1,0,-1
 216 438 l 1,1,-1
 216 138 l 1,2,-1
 366 138 l 1,3,-1
 366 58 l 1,4,-1
 205 58 l 1,5,-1
 90 127 l 1,6,-1
 90 438 l 1,0,-1
216 -45 m 1,7,-1
 216 -91 l 1,8,-1
 366 -91 l 1,9,-1
 366 -195 l 1,10,-1
 205 -195 l 1,11,-1
 90 -126 l 1,12,-1
 90 -45 l 1,13,-1
 216 -45 l 1,7,-1
688 438 m 1,14,-1
 688 -126 l 1,15,-1
 562 -195 l 1,16,-1
 412 -195 l 1,17,-1
 412 -91 l 1,18,-1
 562 -91 l 1,19,-1
 562 58 l 1,20,-1
 412 58 l 1,21,-1
 412 138 l 1,22,-1
 562 138 l 1,23,-1
 562 438 l 1,24,-1
 688 438 l 1,14,-1
EndSplineSet
EndChar

StartChar: macron
Encoding: 175 175 237
Width: 468
Flags: W
LayerCount: 2
Fore
SplineSet
388 575 m 1,0,-1
 388 524 l 1,1,-1
 80 524 l 1,2,-1
 80 575 l 1,3,-1
 388 575 l 1,0,-1
EndSplineSet
EndChar

StartChar: creativecommons
Encoding: 57344 57344 238
Width: 701
Flags: W
LayerCount: 2
Fore
SplineSet
375 141 m 1,0,-1
 576 231 l 1,1,-1
 579 482 l 1,2,-1
 375 571 l 1,3,-1
 375 624 l 1,4,-1
 621 518 l 1,5,-1
 621 197 l 1,6,-1
 375 86 l 1,7,-1
 375 141 l 1,0,-1
80 199 m 1,8,-1
 80 513 l 1,9,-1
 329 624 l 1,10,-1
 329 571 l 1,11,-1
 124 482 l 1,12,-1
 124 229 l 1,13,-1
 329 141 l 1,14,-1
 329 86 l 1,15,-1
 80 199 l 1,8,-1
179 429 m 1,16,-1
 236 464 l 1,17,-1
 316 464 l 1,18,-1
 316 417 l 1,19,-1
 234 417 l 1,20,-1
 234 297 l 1,21,-1
 315 297 l 1,22,-1
 315 244 l 1,23,-1
 236 244 l 1,24,-1
 179 280 l 1,25,-1
 179 429 l 1,16,-1
366 429 m 1,26,-1
 422 464 l 1,27,-1
 503 464 l 1,28,-1
 503 417 l 1,29,-1
 421 417 l 1,30,-1
 421 297 l 1,31,-1
 501 297 l 1,32,-1
 501 244 l 1,33,-1
 422 244 l 1,34,-1
 366 280 l 1,35,-1
 366 429 l 1,26,-1
EndSplineSet
EndChar

StartChar: gnu
Encoding: 57345 57345 239
Width: 701
Flags: W
LayerCount: 2
Fore
SplineSet
375 141 m 1,0,-1
 576 231 l 1,1,-1
 579 482 l 1,2,-1
 375 571 l 1,3,-1
 375 624 l 1,4,-1
 621 518 l 1,5,-1
 621 197 l 1,6,-1
 375 86 l 1,7,-1
 375 141 l 1,0,-1
80 199 m 1,8,-1
 80 513 l 1,9,-1
 329 624 l 1,10,-1
 329 571 l 1,11,-1
 124 482 l 1,12,-1
 124 229 l 1,13,-1
 329 141 l 1,14,-1
 329 86 l 1,15,-1
 80 199 l 1,8,-1
372 417 m 1,16,-1
 404 396 l 1,17,-1
 404 286 l 1,18,-1
 376 286 l 1,19,-1
 376 383 l 1,20,-1
 325 383 l 1,21,-1
 325 287 l 1,22,-1
 294 287 l 1,23,-1
 294 396 l 1,24,-1
 325 417 l 1,25,-1
 372 417 l 1,16,-1
455 286 m 1,26,-1
 424 307 l 1,27,-1
 424 417 l 1,28,-1
 452 417 l 1,29,-1
 452 321 l 1,30,-1
 503 321 l 1,31,-1
 503 416 l 1,32,-1
 534 416 l 1,33,-1
 534 307 l 1,34,-1
 503 286 l 1,35,-1
 455 286 l 1,26,-1
274 359 m 1,36,-1
 274 300 l 1,37,-1
 242 286 l 1,38,-1
 197 286 l 1,39,-1
 163 307 l 1,40,-1
 163 396 l 1,41,-1
 197 417 l 1,42,-1
 242 417 l 1,43,-1
 274 396 l 1,44,-1
 274 390 l 1,45,-1
 194 390 l 1,46,-1
 194 317 l 1,47,-1
 242 317 l 1,48,-1
 242 341 l 1,49,-1
 221 341 l 1,50,-1
 221 359 l 1,51,-1
 274 359 l 1,36,-1
EndSplineSet
EndChar

StartChar: socialagerillan
Encoding: 57346 57346 240
Width: 1015
Flags: W
LayerCount: 2
Fore
SplineSet
745 351 m 1,0,-1
 745 367 l 1,1,-1
 935 367 l 1,2,-1
 935 112 l 1,3,-1
 819 -1 l 1,4,-1
 532 -1 l 1,5,-1
 449 80 l 1,6,-1
 417 80 l 1,7,-1
 417 2 l 1,8,-1
 100 2 l 1,9,-1
 100 274 l 1,10,-1
 179 274 l 1,11,-1
 179 84 l 1,12,-1
 339 84 l 1,13,-1
 339 292 l 1,14,-1
 100 292 l 1,15,-1
 100 573 l 1,16,-1
 417 573 l 1,17,-1
 417 546 l 1,18,-1
 446 546 l 1,19,-1
 510 608 l 1,20,-1
 510 806 l 1,21,-1
 677 806 l 1,22,-1
 757 726 l 1,23,-1
 757 575 l 1,24,-1
 855 575 l 1,25,-1
 855 575 l 1,26,-1
 935 492 l 1,27,-1
 935 384 l 1,28,-1
 859 384 l 1,29,-1
 859 461 l 1,30,-1
 858 461 l 1,31,-1
 825 492 l 1,32,-1
 825 493 l 1,33,-1
 680 493 l 1,34,-1
 680 695 l 1,35,-1
 647 726 l 1,36,-1
 589 726 l 1,37,-1
 589 576 l 1,38,-1
 480 467 l 1,39,-1
 417 467 l 1,40,-1
 417 324 l 1,41,-1
 339 324 l 1,42,-1
 339 494 l 1,43,-1
 179 494 l 1,44,-1
 179 308 l 1,45,-1
 417 308 l 1,46,-1
 417 158 l 1,47,-1
 482 158 l 1,48,-1
 561 83 l 1,49,-1
 790 83 l 1,50,-1
 859 147 l 1,51,-1
 859 351 l 1,52,-1
 745 351 l 1,53,-1
 745 351 l 1,0,-1
EndSplineSet
EndChar

